<?xml version="1.0" encoding="UTF-8"?>
<svg width="740px" height="680px" viewBox="0 0 740 680" version="1.1" xmlns="http://www.w3.org/2000/svg" xmlns:xlink="http://www.w3.org/1999/xlink">
    <!-- Generator: Sketch 62 (91390) - https://sketch.com -->
    <title>Scene/Whiteboard</title>
    <desc>Created with Sketch.</desc>
    <g id="Scene/Whiteboard" stroke="none" stroke-width="1" fill="none" fill-rule="evenodd">
        <path d="M53.8112777,472.87459 C70.1175596,388.901252 235.117775,436.739664 343.290069,410.779141 C451.462363,384.818618 579.439199,263.915231 664.13652,323.139775 C748.833842,382.364318 658.716864,525.527201 464.457517,557.834305 C270.19817,590.141408 37.5049959,556.847928 53.8112777,472.87459 Z" id="Background-Shape" fill="#F2F2F2"></path>
        <g id="Cells" opacity="0.5" transform="translate(95.000000, 78.000000)">
            <path d="M1.90802857,2.67231771 C0.335028571,4.24279688 0.946028571,9.82430208 0.913064286,11.8898437 C0.862457143,15.1054323 1.06256429,18.2922812 1.33138571,21.4962813 C1.51152857,23.6415521 2.52692143,44.1138698 5.35256429,42.5415365 C6.94552857,41.6557083 5.94685,35.7335 5.94406429,33.8603281 C5.93756429,29.6958698 5.76438571,25.5416094 5.48674286,21.3864219 C5.2286,17.5288281 5.06656429,13.7161979 5.21513571,9.8511875 C5.25135,8.90788021 6.13395714,-1.56120833 1.90802857,2.67231771" id="Fill-5" fill="#89C5CC"></path>
            <path d="M70.4094393,0.148657812 C56.8959393,0.256199479 43.3880107,0.922772396 29.8810107,1.3311526 C23.381475,1.52769427 16.8861179,1.77754323 10.3935464,2.1377151 C8.181225,2.26055365 3.436225,1.55226198 1.59301071,2.73104844 C-2.49873929,5.34820469 4.10015357,5.96007969 5.85933214,5.89611094 C32.5896536,4.92684531 59.3292607,3.65025156 86.0823321,3.58999115 C99.2058321,3.56078802 112.322832,3.9344026 125.447725,3.85050156 C130.464796,3.81851719 136.020439,1.6570224 137.287475,7.49672031 C138.717475,14.0864286 137.074368,21.4233661 136.627261,28.0450589 C136.328725,32.4653922 136.435046,36.7939443 136.634225,41.2105693 C136.761904,44.0400276 136.429475,47.2282672 136.929511,50.0048818 C137.410975,52.6785901 139.333118,54.2819807 141.095082,51.287038 C142.147618,49.4973036 141.623904,45.0783609 141.694011,43.0049391 C141.788261,40.2125641 141.699582,37.4211161 141.699582,34.6282776 C141.698654,27.8114339 142.661118,21.0214755 142.533904,14.2060224 C142.452189,9.81118385 142.218654,1.84382969 136.675546,0.787881771 C130.571582,-0.375144271 123.068725,0.794371354 116.822225,0.722985937 C101.344332,0.546376562 85.8924393,0.0276734375 70.4094393,0.148657812" id="Fill-7" fill="#89C5CC"></path>
            <path d="M33.1736321,42.786101 C28.0780964,42.786101 22.9820964,42.8166948 17.887025,42.9010594 C13.5171679,42.9733719 6.64666786,42.0625125 2.579525,43.6260385 C-0.204796429,44.6963562 -0.944403571,47.8048667 2.579525,48.6327521 C6.42288214,49.5361948 12.2153107,48.059351 16.2364893,47.9884292 C36.4004179,47.6324292 56.7584179,47.168424 76.894025,48.4436271 C95.7616679,49.638174 114.992846,50.7965646 133.888346,49.5357312 C135.478061,49.4295802 143.586346,49.1069552 139.886454,46.0675125 C137.727989,44.2935385 128.979454,45.4602729 126.174239,45.3754448 C116.279846,45.076924 106.375704,45.0106375 96.4845607,44.6356323 C86.7224893,44.2652625 77.0035964,43.1675958 67.238275,42.8959604 C55.8929893,42.5802885 44.5226321,42.786101 33.1736321,42.786101" id="Fill-9" fill="#89C5CC"></path>
            <path d="M28.0753107,13.8039 C36.0173821,14.1506292 43.8749536,25.6687125 35.8390964,31.2353844 C28.3004893,36.4585719 14.1718107,30.7342958 18.3638464,20.6059104 C17.7612036,22.0702385 19.1257393,19.0150354 19.1429179,18.9946396 C19.9400964,18.0555042 21.3714893,17.0157802 22.3539179,16.2755042 C23.4784179,15.42815 24.6493464,14.4955042 26.0050607,14.0709 C26.8950964,13.7923115 26.7553464,14.8408427 28.0753107,13.8039 M24.2073464,9.64963958 C20.490275,11.1009885 18.793775,12.7382177 16.239275,15.7007125 C14.4717393,17.7509573 12.2185607,18.8296188 12.2383933,21.6002073 C12.2427036,22.2134729 13.0305964,22.8874625 13.1666321,23.4780146 C13.3546679,24.2943115 13.1369179,25.3400615 13.2859536,26.2073479 C14.8236679,35.1564833 25.5013107,38.173676 33.3170964,36.4840667 C40.1253821,35.0123219 45.2172036,28.4768479 43.640025,21.3702906 C42.0521679,14.2164521 31.4437036,6.81925417 24.2073464,9.64963958" id="face" fill="#89C5CC"></path>
            <path d="M20.8963393,22.1426901 C20.8963393,25.361987 25.9816607,25.361987 25.9816607,22.1426901 C25.9816607,18.960013 20.8963393,18.8232682 20.8963393,22.1426901" id="Fill-13" fill="#89C5CC"></path>
            <path d="M27.2584929,21.4910432 C27.2584929,24.0493297 31.2991714,24.0493297 31.2991714,21.4910432 C31.2991714,18.9619599 27.2584929,18.8539547 27.2584929,21.4910432" id="Fill-15" fill="#89C5CC"></path>
            <path d="M28.5096964,26.76675 C27.2157321,27.2641302 25.5744821,26.23275 24.5121964,26.9123021 C22.6309107,28.1165833 24.5168393,29.2063698 25.5252679,29.6903073 C30.0655179,31.8689531 30.873375,25.8614531 28.5096964,26.76675" id="Fill-17" fill="#89C5CC"></path>
            <path d="M97.8496071,19.6317776 C97.7145,19.6892568 97.2325714,19.8932151 97.8496071,19.6317776 M78.0775357,16.7420589 C74.6794286,17.5092203 71.8101429,20.6826266 68.1181429,20.2580224 C65.2887857,19.9326161 63.3731429,17.2023557 60.58,16.8055641 C57.0068571,16.2975224 47.2823929,24.4484391 52.3951071,25.8469443 C55.3781429,26.6632411 57.0328571,21.2119911 59.6681429,20.9222776 C61.7527857,20.693288 64.5877143,23.2497203 66.7480357,23.6136005 C70.7780357,24.2926891 73.5456429,22.072788 77.0835,20.6413714 C80.9277857,19.0857255 83.1150357,20.4865484 86.4583571,22.2155589 C89.0973571,23.5802255 91.5826786,24.4688349 94.6023929,23.9056318 C97.4363929,23.3776578 100.996536,20.4633714 103.849107,20.7623557 C106.643179,21.0553141 108.637286,23.9709911 111.511214,24.2416995 C112.696071,24.3529495 114.459893,24.7566943 114.260714,22.9284859 C114.101464,21.4646214 112.468107,21.7126161 111.446214,21.1804703 C108.818357,19.8120953 106.360429,17.3882359 103.188893,17.5949755 C100.803393,17.7507255 98.6314643,19.4268922 96.4330714,20.2288193 C89.2329286,22.8547828 85.1852857,15.1479391 78.0775357,16.7420589" id="Fill-19" fill="#89C5CC"></path>
            <path d="M84.0924964,63.1111052 C70.2038536,63.2385792 56.2683179,63.4448552 42.418675,64.5582823 C39.1352464,64.8220375 5.60824643,67.9875635 5.67176318,68.215626 C5.78931786,68.637449 10.1016036,69.2817719 10.074675,69.3814333 C9.78403214,68.660626 9.11963929,68.3621052 8.08196071,68.4867979 C39.8794964,68.4867979 71.5762821,65.639725 103.415604,66.1519385 C111.415711,66.2803396 119.445996,66.2265688 127.440532,66.4787354 C129.436496,66.5417771 134.381604,67.9722667 135.949032,67.0711417 C140.062604,64.7056885 132.589461,64.4326625 131.351675,64.3334646 C115.682961,63.0800479 99.8053179,62.9544281 84.0924964,63.1111052" id="Fill-21" fill="#69A1AC"></path>
            <path d="M1.55572857,69.8591594 C-0.520557143,71.940925 1.39137143,79.4299042 1.47308571,82.2445292 C1.59147857,86.3139615 1.49397857,90.4121333 1.85101429,94.4709042 C2.25865714,99.1072479 2.89101429,104.046748 4.10744286,108.544956 C4.77740714,111.02305 7.12901429,114.9613 8.06083571,110.458456 C8.72615714,107.242404 7.71587143,102.975967 7.36440714,99.6996542 C6.89408571,95.3168677 6.78033571,90.9915604 6.76269286,86.587451 C6.74690714,82.7497896 6.67308571,78.8963677 6.3583,75.0707583 C6.19487143,73.0844823 5.19572857,66.2384354 1.55572857,69.8591594" id="Fill-23" fill="#69A1AC"></path>
            <path d="M53.794,107.998162 C43.9381429,108.167355 34.0609286,108.39959 24.2217857,109.015173 C20.189,109.267803 16.1594643,109.643735 12.1415357,110.070194 C11.3216071,110.156876 2.24667857,110.525392 6.30175,113.87448 C8.13196429,115.386553 15.6608214,113.29598 18.1475357,113.078116 C22.3298214,112.711454 26.5111786,112.473194 30.7055357,112.295657 C40.4239643,111.883105 50.1721071,111.518761 59.9002857,111.687491 C77.6666429,111.995746 95.3187857,112.133418 113.09025,111.73709 C115.615036,111.681001 135.395929,112.209439 136.06775,109.582548 C136.609107,107.465553 129.53525,108.436673 128.245464,108.475147 C123.513929,108.616527 118.781929,108.583616 114.048536,108.559511 C93.9974286,108.456605 73.8297857,107.659314 53.794,107.998162" id="Fill-25" fill="#69A1AC"></path>
            <path d="M132.718718,66.346626 C133.031646,75.1219333 134.526182,83.8870427 135.003932,92.6887719 C135.222146,96.7123135 135.479361,100.732147 135.676218,104.757079 C135.739825,106.055459 135.216575,109.183902 136.751968,109.930668 C138.857968,110.955095 139.141646,108.890944 139.535825,107.494756 C140.674718,103.461944 139.904468,98.2234594 139.800932,94.081251 C139.701111,90.0697615 139.694146,86.0513188 139.398396,82.0472458 C139.095218,77.9564906 138.271575,73.9431469 137.889468,69.8667615 C137.727896,68.14285 138.292932,65.2739906 136.462718,64.2041365 C134.880896,63.2793708 132.650468,64.4447146 132.718718,66.346626" id="Fill-27" fill="#69A1AC"></path>
            <path d="M35.8446214,80.9441094 C35.8822286,80.972849 35.9193714,81.0020521 35.9565143,81.0312552 C35.9193714,81.0020521 35.8817643,80.9733125 35.8446214,80.9441094 M27.4689071,78.3441042 C30.5921571,79.2364219 33.1573357,78.903599 36.1408357,81.1772708 C38.6140857,83.0624948 41.1509429,85.8205677 41.9713357,88.8688177 C43.86655,95.9114063 37.4413,99.7708542 31.4176571,99.846875 C25.2477643,99.9242865 16.1152643,98.4933333 16.4314429,90.584849 C16.6738,84.5087448 21.1105143,78.5800469 27.4689071,78.3441042 M27.6889786,74.3641354 C19.5899786,74.7674167 13.0570143,83.8625677 13.1271214,91.5184219 C13.2116214,100.797135 23.7253714,103.18762 31.1938714,103.252052 C39.6229786,103.324365 48.0284071,97.5041354 45.7696571,88.0251719 C43.9598714,80.4305052 35.4773714,73.9594635 27.6889786,74.3641354" id="face" fill="#69A1AC"></path>
            <path d="M19.54225,86.8223276 C19.54225,89.4098172 23.6302857,89.4098172 23.6302857,86.8223276 C23.6302857,84.2645047 19.54225,84.1546453 19.54225,86.8223276" id="Fill-31" fill="#69A1AC"></path>
            <path d="M28.11705,85.6870214 C28.11705,88.2949068 32.2375857,88.2949068 32.2375857,85.6870214 C32.2375857,83.1088026 28.11705,82.9980161 28.11705,85.6870214" id="Fill-33" fill="#69A1AC"></path>
            <path d="M23.3898321,91.5886021 C20.7290107,94.2451594 30.076475,98.9023625 32.2809036,95.2065448 C34.0916179,92.171274 30.1493679,93.1776229 28.7518679,93.0135292 C27.2331893,92.8346021 24.629475,90.3523365 23.3898321,91.5886021" id="Fill-35" fill="#69A1AC"></path>
            <path d="M98.1244179,85.7404677 C97.8681321,85.8480094 97.8681321,85.8480094 98.1244179,85.7404677 M63.0220964,81.415624 C60.3278464,81.9208844 51.4859893,84.903775 51.3666679,88.1003583 C51.1484536,93.9103896 59.8078464,87.9594417 61.6882036,87.1950615 C66.796275,85.1193219 69.4803107,89.353775 74.6115964,89.5772021 C79.068275,89.771426 83.1660607,85.9574052 87.3641321,86.4084312 C91.762775,86.8807802 93.878525,91.5602333 98.9564179,89.07565 C101.642775,87.7615094 101.574989,85.7353687 98.5594536,85.5443896 C96.7366679,85.4289677 95.4844893,86.1822229 93.5841679,85.3979104 C90.612275,84.1723062 89.4153464,82.1762958 85.8589179,82.4933583 C83.1753464,82.7325458 80.7499179,84.2450823 78.1304179,84.8305354 C72.1323107,86.1706344 68.8052393,80.3323271 63.0220964,81.415624" id="Fill-37" fill="#69A1AC"></path>
            <path d="M118.817586,88.2630151 C118.632336,88.3408901 118.632336,88.3408901 118.817586,88.2630151 M119.4973,85.8437911 C119.527014,85.8567703 119.730371,86.1386036 119.4973,85.8437911 M116.408871,83.9970411 C116.2928,84.0865047 116.2928,84.0865047 116.408871,83.9970411 M116.476193,83.9743276 C117.075121,84.3326453 121.890229,87.6251818 118.392764,88.400687 C116.617336,88.7942339 115.148336,85.2217182 116.476193,83.9743276 M114.881836,80.3267182 C107.168657,83.8436089 115.468693,96.4287651 121.52205,91.315437 C124.069121,89.1636766 124.404336,84.8147286 121.926443,82.5730411 C120.441657,81.2296974 116.8973,79.4061245 114.881836,80.3267182" id="point" fill="#69A1AC"></path>
            <path d="M42.4768036,129.920856 C32.8521607,129.923637 23.1430179,129.721533 13.531375,130.292153 C11.9138036,130.388106 5.75180357,130.080314 4.91841071,131.771314 C3.39369643,134.864064 9.73398214,133.328814 10.655125,133.236106 C29.7929821,131.320288 49.7841964,132.42259 68.9851964,132.968642 C84.6887321,133.415033 100.308232,133.692231 115.993196,134.501574 C120.116054,134.71434 124.235196,134.949356 128.355268,135.197814 C129.697982,135.278934 133.077518,136.168934 133.360732,134.024127 C133.622589,132.039241 129.406875,132.487486 128.353875,132.431861 C119.979089,131.991033 111.609875,131.529345 103.237411,131.057923 C83.0850893,129.921783 62.6611607,129.917147 42.4768036,129.920856" id="Fill-41" fill="#89C5CC"></path>
            <path d="M4.60938214,133.360057 C2.81166786,135.14701 3.65434643,141.970807 3.60420357,144.226401 C3.51645357,148.17114 3.330275,152.112635 3.24670357,156.056447 C3.15988214,160.17826 3.28059643,164.319078 3.52434643,168.434864 C3.62648929,170.162947 5.04488214,178.515041 7.27809643,173.735463 C8.27584643,171.599463 7.25395357,165.650369 7.269275,163.230218 C7.29666786,158.825645 7.53391786,154.439614 7.75306071,150.041067 C7.94156071,146.259958 7.948525,142.47514 8.11381071,138.693104 C8.166275,137.487432 8.30881071,129.649406 4.60938214,133.360057" id="Fill-43" fill="#89C5CC"></path>
            <path d="M134.979836,168.595342 C125.613336,169.555337 116.096407,169.10153 106.694157,169.810748 C98.5909786,170.421696 90.4952286,170.671545 82.3711571,170.843519 C63.9747643,171.231967 45.5472643,171.610681 27.2042643,173.143613 C23.0238357,173.49266 18.8485143,173.863493 14.6569429,174.050764 C12.5606929,174.144399 3.76433571,173.190431 3.10922857,175.400134 C1.99355,179.163629 11.4004429,177.674269 13.4293714,177.615399 C17.8911571,177.486535 22.33205,177.16391 26.7813,176.825061 C45.4845857,175.400134 64.2593714,174.974139 83.0025857,174.381733 C93.1964429,174.060035 103.319264,173.314196 113.490371,172.635571 C118.559907,172.297649 123.643371,172.286524 128.712443,171.958801 C130.038907,171.873045 134.733764,172.042238 135.687871,170.974702 C136.343443,170.241842 136.509193,168.452571 134.979836,168.595342" id="Fill-45" fill="#89C5CC"></path>
            <path d="M131.804864,134.000393 C132.12615,142.982904 132.633614,151.957534 132.936793,160.940044 C133.028257,163.641102 132.212043,168.482331 133.716329,170.864471 C136.134793,174.694716 138.022579,170.641044 138.465507,168.254268 C139.863471,160.721253 138.360579,152.399753 137.970114,144.820383 C137.821543,141.92881 138.719471,135.492997 137.321971,132.905044 C135.990864,130.43993 131.685543,130.687461 131.804864,134.000393" id="Fill-47" fill="#89C5CC"></path>
            <path d="M116.079461,146.793494 C119.667925,147.765541 120.192104,155.567411 116.143068,156.14452 C110.116175,157.003463 112.751925,148.401984 116.079461,146.793494 M115.074282,143.69101 C113.979496,143.656708 111.452854,143.354942 110.778246,144.245869 C110.213675,144.991708 110.784282,146.564505 110.718354,147.274651 C110.481104,149.813005 108.417354,151.278723 109.339889,154.27552 C109.966211,156.309541 111.643211,158.220723 113.686996,158.927161 C124.472354,162.654963 124.340961,141.815984 115.074282,143.69101" id="hola-:)" fill="#89C5CC"></path>
            <path d="M17.7018679,145.090767 C17.6749393,145.125069 17.6480107,145.159371 17.6215464,145.193673 C17.6480107,145.159371 17.6749393,145.125069 17.7018679,145.090767 M26.1727607,140.583751 C26.1305107,140.223116 26.0882607,139.862017 26.0460107,139.500918 C31.8936893,142.261308 36.5467607,147.395959 34.6051179,154.287897 C33.1235821,159.54585 27.7708321,161.410678 22.7839393,160.112761 C17.2635821,158.675319 14.6255107,154.125194 16.1140107,148.537662 C16.8006893,145.959907 18.909475,142.49586 21.6352964,141.667048 C22.9041893,141.281381 25.7103321,142.264553 26.1727607,140.583751 M22.7532964,138.400933 C21.2740821,138.500595 19.8343321,139.117105 18.6271893,139.959824 C19.7572607,139.004001 21.2634036,138.434772 22.7532964,138.400933 M22.7955464,135.005027 C19.1416179,135.116741 16.7472964,137.328761 14.5800107,139.985319 C13.8998321,140.81923 11.600225,143.02986 11.8848321,144.153485 C12.1100107,145.041631 12.6991893,146.340475 13.9397607,145.35035 C7.44208214,158.300314 24.2278679,169.345584 34.4751179,160.34036 C44.038475,151.93635 34.5503321,134.611017 22.7955464,135.005027" id="Fill-51" fill="#89C5CC"></path>
            <path d="M19.4755786,147.034536 C19.4755786,148.758911 22.15265,148.758911 22.15265,147.034536 C22.15265,145.310161 19.4755786,145.310161 19.4755786,147.034536" id="Fill-53" fill="#89C5CC"></path>
            <path d="M24.0441036,147.328792 C24.0441036,149.081443 26.7643536,149.081443 26.7643536,147.328792 C26.7643536,145.576141 24.0441036,145.576141 24.0441036,147.328792" id="Fill-55" fill="#89C5CC"></path>
            <path d="M26.1172786,153.483606 C24.8446714,153.586976 20.1864929,153.154491 19.3688857,154.269309 C18.0024929,156.131819 20.1832429,156.196715 21.25435,156.397892 C22.2191357,156.579137 26.4130286,156.476694 27.0040643,155.620069 C27.5263857,154.863106 27.4042786,153.37421 26.1172786,153.483606" id="Fill-57" fill="#89C5CC"></path>
            <path d="M82.2410179,148.653084 C82.0223393,148.743475 82.0223393,148.743475 82.2410179,148.653084 M64.6399464,147.365829 C61.7725179,147.576741 59.3438393,149.226022 56.6022321,149.884251 C53.6758393,150.58698 52.4092679,149.294626 49.7484464,148.448662 C46.980375,147.56886 45.0113393,147.916517 42.7864821,149.80684 C41.5259464,150.878084 38.7601964,153.343662 39.5480893,155.246501 C41.3523036,159.601939 45.4361607,152.515777 47.3569107,152.186199 C50.3534107,151.672131 53.0193393,154.292069 56.4745536,153.542522 C59.6056964,152.863897 62.3839821,150.713991 65.6544107,150.690814 C68.3890536,150.671345 70.9663036,152.167657 73.666125,152.529683 C77.7875893,153.082689 80.4939107,151.619287 84.3038393,150.532746 C87.6076964,149.590829 89.9244821,150.833121 93.0319464,151.877944 C94.4521964,152.355392 99.1911607,154.091355 98.3187679,150.943444 C98.0722321,150.054371 91.827125,148.464423 90.8590893,148.158485 C87.4447321,147.079824 85.2825536,147.500256 82.0302321,148.74023 C79.317875,149.774855 77.036375,150.278725 74.1280893,149.709496 C70.9240536,149.082324 68.0101964,147.109954 64.6399464,147.365829" id="Fill-59" fill="#89C5CC"></path>
        </g>
        <path d="M644.13908,217.005709 C639.73613,217.090788 628.863428,218.692282 627.246911,223.900774 C626.019905,227.854461 629.664551,226.986379 631.618092,225.547764 C634.260874,223.602314 636.578143,222.438047 639.852615,221.846131 C652.326181,219.589937 664.311245,227.680662 676.665103,228.703889 C681.344762,229.091523 686.992213,229.344031 691.460081,227.828527 C694.642009,226.749339 695.057304,224.396236 691.42601,224.03772 C688.340769,223.733345 684.926791,224.692876 681.763739,224.665578 C668.67506,224.553656 657.040371,216.75957 644.13908,217.005709" id="Fill-79" fill="#C1DEE2" opacity="0.5"></path>
        <g id="Cards" opacity="0.5" transform="translate(44.000000, 296.000000)">
            <path d="M55.5090174,0.361698176 C47.0847828,0.456332559 38.6647208,0.76714156 30.2571769,1.29922801 C22.261804,1.8058003 13.5867431,1.42123214 5.7216514,2.9711021 C3.48832512,3.41087365 0.471456933,5.44644066 3.44103443,7.68519325 C5.52831591,9.2591857 13.164836,7.4486073 15.6573338,7.29552227 C24.8363651,6.73142713 34.0200327,6.05553352 43.2120457,5.7308077 C51.9139973,5.42324596 60.6154853,5.31469475 69.3216096,5.22794657 C70.650849,5.21495754 72.8572845,4.78863892 74.1809604,5.17459876 C76.0827881,5.72941602 75.631672,5.88018158 75.7740077,8.29428612 C76.032252,12.6683429 75.9608523,17.0581722 75.8741527,21.436404 C75.7902349,25.6731482 75.6335265,29.9094285 75.6488265,34.1480283 C75.65949,37.1721535 74.6928126,43.1814368 76.2102876,45.8075409 C78.3944686,49.5878133 80.6602493,45.4818873 80.8234485,42.9699011 C81.135938,38.1653506 80.9959205,33.3018856 80.9973114,28.4913045 C80.9982387,23.97576 81.0306931,19.4602155 80.8716665,14.9469904 C80.7562216,11.6867432 81.222174,5.99569119 79.4659274,3.03187222 C77.6772264,0.0133137587 73.3705277,0.664157085 70.2280146,0.520349935 C65.3260094,0.294897436 60.4151953,0.310669833 55.5090174,0.361698176" id="Fill-173" fill="#89C5CC"></path>
            <path d="M1.90960914,5.81040304 C1.91888183,14.294561 0.937368078,22.7221239 0.662432956,31.19654 C0.536365731,35.092786 0.280398318,39.3712807 1.26608477,43.1960869 C2.26104392,47.0580048 5.4211751,47.8948696 5.785128,43.5834385 C6.52230649,34.8529528 6.34148912,25.8000608 6.91546835,16.9995271 C7.11807652,13.8923649 8.43665239,8.19806562 7.2057034,5.28852225 C6.12172648,2.72550773 1.9049728,2.23424395 1.90960914,5.81040304" id="Fill-171" fill="#89C5CC"></path>
            <path d="M80.9059291,43.207554 C66.2759497,45.1443116 50.9815824,44.4382649 36.2472853,44.7425794 C29.1782536,44.888706 22.1106128,44.8979839 15.0406539,44.971743 C12.5731923,44.9972572 6.30717512,44.0587996 4.17260294,45.4458427 C0.774627382,47.6539783 4.46144709,49.3578611 6.71100057,49.4065699 C20.6631466,49.7122761 34.7706102,49.0707107 48.7199745,48.6128473 C54.9873825,48.4073422 61.2751905,48.3066772 67.5259077,47.7741269 C71.3740721,47.4461538 75.579235,47.1283864 79.3161272,46.0943666 C80.1121872,45.873553 81.8457157,45.9194785 82.0242149,44.8335026 C82.1340963,44.161784 81.9347335,43.0656024 80.9059291,43.207554" id="Fill-175" fill="#89C5CC"></path>
            <path d="M20.0702048,55.5401768 C16.0041322,55.5638354 3.75120576,53.6753228 2.06728609,57.6402251 C-0.177631044,62.9281532 8.57995667,61.6937312 10.9352188,61.6334249 C16.284631,61.4961123 21.6303341,61.4812677 26.9811372,61.4835872 C32.2313317,61.4859066 37.4810625,61.4520424 42.7303297,61.3272549 C44.2510501,61.2906073 47.7908977,61.921967 48.6657756,60.0905134 C49.3306272,58.6988313 48.8053295,57.6007941 47.5790169,56.8641304 C44.6284484,55.0906635 36.963183,56.1191166 33.5086441,55.959537 C29.0359643,55.7535681 24.5484482,55.5401768 20.0702048,55.5401768" id="Fill-177" fill="#89C5CC"></path>
            <path d="M69.5366895,56.5191788 C67.2129546,56.6574192 62.5126303,55.699478 60.4309125,56.7627232 C58.0649868,57.971631 58.8986012,59.8643187 60.9413738,60.6960807 C62.355922,61.2717732 68.1587685,60.9697781 69.5366895,60.3026985 C70.9730285,59.6068575 72.5971393,56.3308378 69.5366895,56.5191788" id="Fill-179" fill="#89C5CC"></path>
            <path d="M95.0127899,6.64286975 C92.5309557,7.32386619 93.2838977,21.4137196 93.2199162,23.6473694 C93.0446624,29.7670594 92.3566292,37.4639892 94.3901291,43.3577629 C95.6869141,47.1148407 98.1775574,46.605485 97.7533321,42.6498606 C97.3805701,39.1780777 96.7412185,35.7461896 96.4644288,32.2516759 C95.8385225,24.3446021 94.9868264,15.9105447 95.5779601,7.99697643 C95.8297135,8.45669542 98.1840483,12.7217371 98.7380913,12.4035058 C98.5707193,12.5027792 96.0225853,6.37659458 95.0127899,6.64286975" id="Fill-181" fill="#89C5CC"></path>
            <path d="M122.930017,1.45347278 C117.907467,1.52769583 112.884917,1.61676348 107.863758,1.75593169 C103.871404,1.86726626 97.5979682,1.2113201 93.9366484,2.89061649 C89.5770954,4.88999977 91.6453678,9.34523805 95.7401857,9.43940854 C99.3625603,9.52290946 103.225561,8.70599207 106.880854,8.58074068 C116.753945,8.24256193 126.644655,8.17065836 136.522383,8.08622964 C145.455688,8.00922324 154.76871,8.96206158 163.623661,7.62048004 C164.937137,19.2832399 161.384771,30.9951725 162.593002,42.7919977 C162.78031,44.6229875 162.696392,47.2101245 165.028009,47.6271652 C167.970696,48.1536849 168.091704,45.2390387 168.20344,43.1519795 C168.521957,37.1927968 168.349485,31.2289751 168.785765,25.2619062 C169.190054,19.7322893 169.986114,14.0806683 169.313381,8.54223748 C168.486257,1.72670636 165.220417,2.27317353 159.447243,1.98973428 C147.254126,1.39177487 135.13658,1.27440968 122.930017,1.45347278" id="Fill-183" fill="#89C5CC"></path>
            <path d="M106.097683,42.8664527 C103.538421,42.930934 99.2878224,42.1423141 97.647948,44.5963136 C95.9417739,47.1495863 97.9660011,49.3767416 100.446908,49.9009418 C103.383568,50.5211681 107.212723,49.6708504 110.260655,49.6615725 C113.434695,49.6522946 116.609662,49.6875506 119.783703,49.7000757 C133.391832,49.7534235 147.058379,49.9593925 160.656772,49.396689 C162.555818,49.3182909 167.945567,49.9552174 169.25997,48.1335056 C170.426474,46.5177626 169.610478,45.0685577 168.074457,44.2456097 C165.554141,42.8952142 160.377665,43.4087448 157.574532,43.3015853 C154.112575,43.1698394 150.646445,43.1266973 147.182633,43.0728856 C133.510986,42.8618138 119.767939,42.528274 106.097683,42.8664527" id="Fill-185" fill="#89C5CC"></path>
            <path d="M117.609072,54.6703755 C112.516514,54.7571237 107.083184,54.5335268 102.041161,55.3059103 C97.60789,55.9850512 97.0621925,60.2705043 101.83438,60.7719737 C106.219897,61.2330844 111.536854,60.3716332 115.943698,60.0886578 C117.508927,59.9879928 119.329156,60.1308722 120.079316,58.4005474 C120.862394,56.5927524 119.365319,54.8591804 117.609072,54.6703755" id="Fill-187" fill="#89C5CC"></path>
            <path d="M156.108381,55.1202136 C153.390093,55.1879421 145.45082,54.019393 144.104426,57.1237719 C141.863218,62.2924792 152.611188,60.3288158 154.67297,60.2527371 C157.27164,60.157175 167.39973,61.6745723 167.402049,57.5375654 C167.404367,53.4808121 158.59717,55.0585157 156.108381,55.1202136" id="Fill-189" fill="#89C5CC"></path>
            <path d="M1.47007879,80.8038458 C1.47656967,90.2065139 0.891463218,99.6973219 1.74918662,109.075868 C2.10386683,112.954949 2.04313074,120.385604 4.28990241,123.674149 C5.8848043,126.008464 8.0968034,125.844709 8.96797219,123.041861 C9.55029683,121.168193 8.61885559,117.420857 8.51500151,115.416371 C8.41485651,113.492603 8.29802067,111.569762 8.20900289,109.645529 C7.9804312,104.688358 7.99851293,99.7386085 8.06666717,94.7786535 C8.12508509,90.5242813 9.14925319,84.8953912 8.18350301,80.8038458 C7.28312526,76.9906369 1.47007879,76.0990325 1.47007879,80.8038458" id="Fill-191" fill="#69A1AC"></path>
            <path d="M95.9667638,72.5321049 C79.653792,72.9412595 63.3041931,72.575711 47.005594,73.3833505 C38.9675667,73.7813716 30.9610665,74.6558118 22.9633753,75.5274687 C19.0340749,75.9561068 15.1070926,76.3977339 11.1847467,76.8811115 C10.0010884,77.0267742 0.165551042,77.4080951 3.86488888,81.1484727 C5.48019067,82.7818436 10.6205038,81.0756413 12.6544674,80.8348803 C16.5925768,80.3700585 20.5385681,79.9646151 24.4822412,79.5475744 C31.9866255,78.7538517 39.5002825,78.0018795 47.0366575,77.5848387 C64.7859683,76.6013834 82.6085332,76.89642 100.375462,76.2409377 C105.181495,76.0637302 109.973155,75.9366232 114.781042,76.125892 C116.043519,76.1755287 125.32084,76.646845 121.292786,73.2205237 C119.388176,71.5996779 112.206945,72.4360789 109.826647,72.38737 C105.206995,72.2918078 100.584561,72.4161314 95.9667638,72.5321049" id="Fill-193" fill="#69A1AC"></path>
            <path d="M117.846129,75.3444625 C117.637957,70.7732507 123.864565,70.0806569 125.71122,73.7806757 C127.576421,77.5182699 126.364481,84.9340799 126.485026,89.0780453 C126.764134,98.6723017 128.543098,109.41284 126.663989,118.901793 C126.010349,122.201963 123.226513,123.936424 121.373738,122.137664 L121.366133,122.149051 C120.477346,123.459088 117.192961,123.094467 115.754767,123.192349 C111.377596,123.489705 107.081561,123.991638 102.743335,124.642017 C94.0993377,125.937673 85.5304491,126.734179 76.7927977,126.950354 C59.5117575,127.3776 42.1593177,126.978188 24.9042411,128.162045 C21.0825038,128.424609 17.3187208,128.874586 13.5595742,129.594086 C10.8751318,130.108545 5.70190058,131.868559 5.38802018,127.433732 C5.00923098,122.089672 18.4175341,122.09895 22.2513258,121.742216 C38.7126606,120.210902 55.4447577,120.533772 71.9566286,120.763863 C79.941338,120.874734 87.9112111,121.118742 95.8894296,120.630726 C103.86023,120.143173 112.101329,120.271208 120.013712,119.413932 C120.014391,119.413856 120.01507,119.413781 120.01575,119.413707 C118.993606,115.464503 119.142814,110.522862 118.856851,106.485205 C118.122455,96.1204206 118.319036,85.7199164 117.846129,75.3444625 Z" id="Wireframy-Stuff" fill="#69A1AC"></path>
            <path d="M131.407848,78.6927568 C129.204195,78.9924324 127.365885,80.8786255 128.349717,83.270927 C129.589011,86.282991 133.280003,85.1060918 135.718256,84.9154314 C143.468366,84.3081941 151.560175,85.5208131 159.216632,84.6060141 C161.307622,84.3559752 164.341181,83.2171153 162.463926,80.4073092 C161.052623,78.2956635 155.910919,78.6663149 153.725347,78.4640571 C146.250172,77.7723911 138.873287,77.9570209 131.407848,78.6927568" id="Fill-199" fill="#C1DEE2"></path>
            <path d="M144.488316,91.8339934 C141.482575,92.0362512 134.48587,91.8771355 133.219221,95.2969623 C130.947413,101.431961 139.846409,99.2702147 142.555888,98.9213664 C145.703501,98.515923 153.123504,99.601435 154.799542,96.5490123 C157.796474,91.0908351 147.124076,91.6521469 144.488316,91.8339934" id="Fill-201" fill="#C1DEE2"></path>
            <path d="M136.759115,105.297775 C135.33344,106.72425 135.331121,109.271492 136.759115,110.697966 C138.50748,112.444527 142.316699,112.081762 144.614007,112.209333 C147.818183,112.388396 157.02086,114.083001 158.612053,110.31015 C160.758679,105.219377 152.425317,105.326073 149.684311,105.037067 C146.516298,104.703527 139.384676,102.670743 136.759115,105.297775" id="Fill-203" fill="#C1DEE2"></path>
            <path d="M24.437176,18.158668 C24.437176,23.6316898 32.985201,23.6316898 32.985201,18.158668 C32.985201,12.7153354 24.437176,12.6322984 24.437176,18.158668" id="Fill-205" fill="#89C5CC"></path>
            <path d="M40.6512082,18.220737 C40.6512082,24.4777397 50.3875278,24.4652146 50.3875278,18.220737 C50.3875278,11.9855373 40.6512082,11.9219838 40.6512082,18.220737" id="Fill-207" fill="#89C5CC"></path>
            <path d="M30.8424688,26.540027 C26.1096902,27.8468165 30.4697069,31.8576443 32.6673333,32.773835 C36.1598903,34.2304623 40.9265142,35.303913 44.4199984,33.1203638 C45.809974,32.2514903 46.9384598,31.0968581 45.9198553,29.4106033 C44.8344875,27.6153334 43.3485396,28.413695 41.6961471,28.5793052 C39.6028384,28.7899131 37.9110369,28.7574405 35.8895915,28.0861858 C34.3809256,27.5851803 32.4879069,26.0872664 30.8424688,26.540027" id="Fill-209" fill="#89C5CC"></path>
            <path d="M116.689964,18.5051968 C116.689964,22.2070712 122.438101,22.2070712 122.438101,18.5051968 C122.438101,14.8033224 116.689964,14.8033224 116.689964,18.5051968" id="Fill-211" fill="#89C5CC"></path>
            <path d="M129.40212,19.0624263 C129.40212,23.1753108 135.787755,23.1757747 135.787755,19.0624263 C135.787755,14.9490779 129.40212,14.9495418 129.40212,19.0624263" id="Fill-213" fill="#89C5CC"></path>
            <path d="M128.929167,27.9883042 C125.574773,28.4206534 115.873226,29.4041088 115.33031,33.5387963 C114.492986,39.9178031 125.123193,34.7551264 127.549391,34.2541209 C130.639514,33.6162666 133.399065,33.7828045 136.484087,33.9066642 C138.177743,33.9743928 140.430542,34.249018 140.25297,31.6688394 C139.961808,27.4320952 131.86119,27.61255 128.929167,27.9883042" id="Fill-215" fill="#89C5CC"></path>
            <path d="M44.5916822,86.8145208 C42.1603841,87.4630446 38.979853,91.6663884 40.6526454,94.2386809 C43.3955058,98.4577971 44.6051276,91.9799808 45.753086,91.3565072 C47.8417584,90.2218224 49.5372689,94.3676434 51.7200591,92.1929082 C55.1643981,88.761484 46.7600997,86.2337254 44.5916822,86.8145208" id="Fill-217" fill="#69A1AC"></path>
            <path d="M72.4503527,83.6958076 C69.5670112,83.7222495 63.4799569,87.804517 63.048777,90.8184365 C62.7928509,92.6095314 63.9802183,94.3301144 65.9107914,94.3542369 C68.5395977,94.3862455 69.3750666,90.9682743 71.6538291,90.2534136 C74.1120179,89.4824217 73.7471378,91.2577442 75.8701191,92.17811 C77.4237575,92.852148 79.3668488,92.5701004 79.906519,90.6597848 C80.9246599,87.0567198 75.4129757,83.6392125 72.4503527,83.6958076" id="eye" fill="#69A1AC"></path>
            <path d="M50.3796461,100.953779 C45.767876,103.656426 53.3561781,109.44907 55.9868389,110.173673 C59.9583301,111.266607 67.9513849,109.226401 68.8925624,104.374997 C69.2671789,102.44427 68.0594116,100.69539 65.9285485,101.040991 C64.1741565,101.325822 63.0489161,103.526535 61.423878,104.314691 C59.2304243,105.3784 57.2803785,105.306033 55.4165688,103.704671 C53.8981665,102.4002 53.084952,99.3760753 50.3796461,100.953779" id="Fill-221" fill="#69A1AC"></path>
            <path d="M53.722171,140.88536 C49.6018532,141.763975 45.4133812,141.174366 41.2731272,142.000561 C37.0512735,142.843456 34.5281758,144.438324 30.6058299,142.831395 C30.4213035,142.753461 30.2372407,142.675527 30.0531779,142.597593 C27.0173007,141.290339 23.8353787,140.902988 20.6576294,142.987264 C18.7771288,144.220294 13.0684,148.485799 13.7564333,151.088709 C15.2474811,156.731516 21.6711339,147.883201 23.3091538,147.020822 C26.4326579,145.376318 28.5741845,147.477294 31.7899518,148.07015 C35.6418253,148.780372 38.7412204,146.744805 42.3696222,145.934382 C46.6132667,144.986183 51.3873088,144.65589 55.7046711,144.14839 C57.4103816,143.947988 63.8711251,145.296992 64.454377,143.174213 C65.4562907,139.527542 55.3416455,140.541614 53.722171,140.88536" id="Fill-223" fill="#C1DEE2"></path>
            <path d="M83.449334,152.249836 C83.7187055,152.453949 83.5026519,152.290194 83.449334,152.249836 M94.9891909,140.664546 C98.5165204,140.306884 109.802306,137.787011 112.11955,141.431827 C113.628679,143.806036 111.233545,152.568531 108.948755,153.701824 C107.1225,154.606881 102.868655,153.606262 100.864828,153.535286 C97.1362812,153.404004 93.3998526,153.345553 89.6754786,153.113142 C88.4264478,153.035208 84.4072024,153.264836 83.4280068,152.159376 C82.2717029,150.853978 82.3231663,143.895104 82.051013,142.169418 C85.2941347,143.219211 91.5981699,141.009219 94.9891909,140.664546 M102.521393,137.09117 C98.0037409,137.286934 93.4870159,137.626504 89.0032089,138.23235 C86.5037565,138.570065 83.9713861,139.468163 81.6629511,139.893554 C80.9188181,140.030867 79.7110508,139.650474 78.7986186,140.091173 C76.1322579,141.378943 78.4671201,150.088553 79.1101808,152.415446 C80.0977218,155.989749 82.5832651,156.568689 86.0656221,156.905476 C90.6528196,157.349887 95.3341348,157.210255 99.9357049,157.153659 C104.371294,157.099384 110.352176,158.082375 112.840965,153.631776 C114.449776,150.754241 116.175422,144.052828 114.800283,140.845929 C112.991182,136.626349 106.236495,136.935302 102.521393,137.09117" id="Fill-225" fill="#C1DEE2"></path>
            <path d="M153.110847,154.643622 C152.869293,154.953967 152.869293,154.953967 153.110847,154.643622 M154.100706,153.450486 C154.026061,153.563676 153.679262,153.929689 154.100706,153.450486 M143.327236,153.122513 C145.318545,152.747687 147.310782,152.377035 149.304409,152.013342 C147.41649,154.656147 145.428427,153.563676 142.203387,153.333585 C142.578003,153.263073 142.95262,153.193025 143.327236,153.122513 M133.826443,152.187303 C134.33134,152.018445 134.835775,151.849588 135.340672,151.68073 C135.325372,152.064835 135.407899,152.424816 135.588253,152.759748 C134.724039,152.666505 133.860752,152.566304 132.998392,152.460072 C133.274254,152.369149 133.55058,152.278226 133.826443,152.187303 M129.423772,148.936333 C129.39549,148.242812 130.438204,148.718767 131.035828,148.672378 C129.883697,149.68645 129.346345,149.77459 129.423772,148.936333 M145.169255,141.071938 C145.320864,140.878494 145.521617,140.888236 145.771516,141.101163 C145.498899,141.19255 144.448768,141.637889 145.169255,141.071938 M155.380336,139.870916 C155.407227,139.870916 155.973788,140.635877 155.380336,139.870916 M155.09381,139.620413 C155.242173,139.733604 155.242173,139.733604 155.09381,139.620413 M153.81928,139.471503 C155.907025,139.823599 155.748462,142.273887 153.81928,139.471503 M129.290709,139.304502 C128.866483,139.656597 129.011601,139.315171 129.290709,139.304502 M137.274954,134.088013 C133.73047,134.294446 127.224291,134.086621 124.263986,135.975134 C120.400985,138.440267 122.433558,146.925817 122.779429,150.645783 C123.290354,156.144319 125.877433,157.709961 131.055764,158.287045 C137.235546,158.975928 143.585017,159.104427 149.796789,158.941136 C155.391,158.794082 158.577095,156.869849 159.601726,150.979787 C159.915607,149.177558 160.71213,146.389555 160.687094,144.663405 C160.66994,143.466095 160.073242,142.920092 159.847453,141.901844 C158.562722,136.105024 156.414241,135.417533 150.472768,135.164711 C146.099769,134.97869 141.56589,133.863488 137.274954,134.088013" id="quare" fill="#89C5CC"></path>
        </g>
        <g id="Checkmark!" opacity="0.5" transform="translate(358.000000, 454.000000)" fill="#89C5CC">
            <path d="M25.6996729,9.37565421 C35.2057477,10.756028 45.0940654,15.2265888 45.0108879,26.2915421 C44.9412617,35.5948131 37.1384579,45.496215 27.1192991,44.9401402 C18.1024766,44.4406075 9.61228972,34.5803271 8.48331776,26.1303271 C7.89827103,21.7522897 8.99266355,17.0387383 11.5678972,13.4373364 C14.9421963,8.71864486 20.2964019,8.7261215 25.6996729,9.37565421 M21.209486,3.36163551 C14.3342523,3.39901869 9.3038785,5.88640187 5.04873832,11.1359346 C3.52257009,13.0181776 1.74780374,15.0443458 0.586121495,17.1770561 C-0.498925234,19.1686449 -0.308738318,24.2335981 3.41462617,21.8592991 C2.49780374,31.6649065 8.22864486,41.1821963 16.4669626,46.2064953 C25.4221028,51.6686449 35.5440654,50.6036916 42.9968692,42.9480841 C49.8192991,35.9401402 52.2202336,24.1032243 47.2291121,15.4364019 C42.2407944,6.77378505 30.6828505,3.26864486 21.209486,3.36163551" id="Fill-292"></path>
            <path d="M41.826215,0.733551402 C37.4243458,3.95971963 33.4051869,8.20785047 30.0668692,12.516729 C26.803785,16.7284112 24.6467757,21.9872897 20.7271495,25.6597196 C18.7477103,23.5036449 16.4285514,17.6807477 12.4799533,19.991028 C9.20331776,21.9078505 11.3131308,25.2045794 12.9089252,27.3690654 C17.0299533,32.9583178 21.6061215,35.2078505 26.8911682,29.6854206 C31.6911682,24.6704673 34.4168692,17.9802804 38.9047196,12.6765421 C40.8734112,10.3494393 43.9145327,8.03962617 45.4822897,5.47046729 C46.9033178,3.14149533 45.1458411,-1.70616822 41.826215,0.733551402" id="Fill-294"></path>
        </g>
        <g id="List" opacity="0.5" transform="translate(600.000000, 300.000000)">
            <path d="M2.5861249,9.26801463 C2.58333306,14.9462341 2.29623918,20.742161 3.34271265,26.3522585 C3.65958612,28.0506732 3.90945551,31.3038439 5.70134939,32.1852585 C7.50115347,33.0703805 9.24605143,32.0758927 9.69321061,30.231039 C10.2148188,28.0845024 9.07063102,24.8721122 8.9547698,22.6185268 C8.7956351,19.5400634 8.78493306,16.4578927 8.78353714,13.375722 C8.78260653,11.1499415 9.51499837,7.56913659 6.88741469,6.42403902 C4.93359429,5.57228293 2.5861249,7.15577073 2.5861249,9.26801463" id="Fill-253" fill="#C1DEE2"></path>
            <path d="M92.3534008,0.287085366 C73.540609,2.1755 54.457009,2.5680122 35.5762824,3.55276829 C26.8485355,4.00784146 16.3009763,3.42718293 8.07855184,6.80547561 C6.55234776,7.43293902 1.0836049,10.9247683 5.52309061,12.3465244 C6.90691102,12.7900122 8.31260082,11.2992073 9.44887837,10.7996463 C11.3412784,9.9687439 13.5319396,9.71154878 15.5499722,9.38715854 C32.7062743,6.63215854 50.6512702,7.11179268 67.9839233,5.82442683 C72.4252702,5.49447561 76.8684784,5.15479268 81.3005192,4.71871951 C84.4669273,4.40730488 91.1222008,2.1249878 94.0443233,3.29232927 C99.0375233,5.28686585 98.9207314,18.2467195 99.0193763,22.7038415 C99.07056,25.0088659 96.8333682,33.2831341 101.280764,32.4443537 C104.840356,31.7728659 103.551458,23.1769878 103.274136,20.825622 C102.546397,14.6622073 101.304495,-0.619817073 92.3534008,0.287085366" id="Fill-255" fill="#C1DEE2"></path>
            <path d="M99.2911616,32.1454976 C82.9500759,33.6210098 66.2325576,32.1733024 49.8244678,32.7534976 C41.2237494,33.0584244 32.6318718,33.5426927 24.0302229,33.8267659 C20.3101004,33.9500341 16.5862555,33.9551317 12.8642718,33.9815463 C11.0840106,33.9935951 2.98256571,35.0728878 7.99437796,38.6022537 C10.2134229,40.1648878 17.2851453,38.9062537 19.8313004,38.8756683 C23.6556514,38.8307171 27.4781412,38.6717659 31.2997004,38.5220829 C40.1521494,38.1759122 48.9990147,37.696278 57.8561167,37.4566927 C66.3284106,37.2273024 74.8048922,37.1781805 83.2767208,36.9487902 C87.4923943,36.8343268 91.7653004,36.7050341 95.9432841,36.0896195 C96.8859943,35.9505951 99.9481739,35.8403024 100.60286,34.7888146 C101.221717,33.7947902 100.787121,32.0013756 99.2911616,32.1454976" id="Fill-257" fill="#89C5CC"></path>
            <path d="M18.9786269,19.8767805 C18.8906841,20.0848537 18.8906841,20.0848537 18.9786269,19.8767805 M26.0550024,17.7260732 C26.3132473,17.835439 26.3132473,17.835439 26.0550024,17.7260732 M25.7237045,17.6662927 C29.5373535,21.5534146 23.6726351,26.193122 20.10048,22.3996098 C16.3087004,18.3734634 23.2687494,17.6792683 25.7237045,17.6662927 M21.6792637,11.785561 C8.54367184,14.1230244 13.1944065,31.629439 25.4626678,29.0991951 C30.8485861,27.9888537 33.9289127,22.5627317 32.0751331,17.3507073 C31.3506514,15.3144634 29.7723331,13.0794146 27.5737616,12.4375854 C26.4775004,12.1178293 25.5078024,12.6210976 24.4636555,12.5033902 C23.4679004,12.3912439 22.9151167,11.5626585 21.6792637,11.785561" id="Fill-259" fill="#C1DEE2"></path>
            <path d="M71.9503322,16.7130024 C64.0294261,16.7380268 56.1066588,17.0744659 48.1871486,17.2246122 C45.7577853,17.2704902 39.5143078,16.1833195 39.504524,20.012978 C39.4938343,24.1049293 46.4487649,22.5937341 48.7631976,22.5385878 C56.6189608,22.3509049 64.4947322,22.0065878 72.31932,21.2586366 C74.2954751,21.0695634 81.1378016,21.3958073 81.1308274,18.7080024 C81.1233771,15.8603195 73.5463322,16.7130024 71.9503322,16.7130024" id="Fill-261" fill="#C1DEE2"></path>
            <path d="M90.8688416,43.4213488 C71.2785233,43.946861 51.7179845,44.1299098 32.1434865,45.132739 C24.8218947,45.5076415 17.5100743,45.7866171 10.1777804,45.7866171 C8.76557633,45.7866171 5.92209061,45.2397878 4.59317633,46.1290805 C0.986123265,48.5411537 5.09338041,50.6116902 7.44410694,50.7419098 C23.5246212,51.6344463 39.8377886,49.4133 55.9089967,48.9118854 C65.3174865,48.6185439 74.7283029,48.5318854 84.131209,48.053178 C86.6964416,47.9224951 89.2621396,47.7709585 91.8231845,47.5721537 C93.2958784,47.4581537 97.1909559,47.7709585 98.381209,46.9094707 C103.578678,43.1474707 92.6211845,43.3740805 90.8688416,43.4213488" id="Fill-263" fill="#89C5CC"></path>
            <path d="M0.98570449,53.0000829 C0.801443265,58.0791073 0.782365714,63.0696195 1.44682286,68.120839 C1.7083249,70.1084244 1.82837388,72.3638634 4.15816163,72.8689854 C6.27390857,73.3273024 7.34690449,71.7271317 7.78522286,69.9527171 C8.85496163,65.6197902 7.91364735,59.3836195 7.90108408,54.8824732 C7.89550041,52.6571561 7.89317388,50.1663024 5.14321469,49.6630341 C3.04514939,49.2788634 1.06573714,50.7951561 0.98570449,53.0000829" id="Fill-265" fill="#89C5CC"></path>
            <path d="M111.633593,65.2447951 C79.9220498,66.9158683 48.2519192,68.3746976 16.5175763,69.7162829 C14.0426131,69.8210146 -5.18337061,69.6115512 1.53797633,76.3162341 C3.61417224,78.3867707 8.96286612,76.984478 11.6476824,76.8528683 C15.6823518,76.6545268 19.7188824,76.5029902 23.7535518,76.2976976 C39.750311,75.483478 55.7884824,75.2638195 71.7731437,74.3499659 C80.5697559,73.847161 89.34636,73.0602829 98.0969069,72.0356732 C102.25907,71.5486244 107.425829,71.5991366 111.324164,69.9679171 C113.329633,69.1286732 115.493772,65.0399659 111.633593,65.2447951" id="Fill-267" fill="#89C5CC"></path>
            <path d="M93.3998743,39.4795902 C90.9881927,41.8814683 92.2282335,46.6198829 92.4101682,49.5885171 C92.6600376,53.6739805 92.9638824,57.761761 93.473858,61.8245171 C93.8056212,64.4636634 93.6302008,68.5713707 95.0382171,70.8509073 C96.6867967,73.520639 100.317115,73.2254439 101.807956,70.646078 C103.126633,68.3651512 102.459384,63.5655659 102.424952,61.037639 C102.377956,57.5421024 102.160193,54.0410049 101.952666,50.5524195 C101.779107,47.6366146 102.439842,42.9640049 100.835931,40.4685171 C99.2064294,37.9327122 95.6598661,37.2320293 93.3998743,39.4795902" id="Fill-269" fill="#89C5CC"></path>
            <path d="M20.9167665,58.1188683 C20.6338604,58.3366732 20.6338604,58.3366732 20.9167665,58.1188683 M26.5492971,57.4130878 C31.8049298,58.4701366 23.3065788,64.6062098 20.6208318,60.3946976 C20.201591,59.7366488 19.9833624,58.9279902 20.6566604,58.3561366 C21.2713298,57.8338683 21.6575339,58.7583805 22.2382359,58.5099902 C23.2381788,58.0817951 25.4823502,57.3732341 26.5492971,57.4130878 M25.8243502,52.3753073 C22.2363747,52.6593805 17.3027339,52.8808927 15.5266604,56.4779171 C13.1405706,61.3090146 17.2213053,66.040478 21.9418359,66.7754537 C26.4846196,67.4830878 33.2673869,64.9667463 33.630791,59.6685268 C33.9239339,55.3967707 29.8608808,52.0476732 25.8243502,52.3753073" id="Fill-271" fill="#89C5CC"></path>
            <path d="M55.7809445,54.9302049 C52.0664057,54.9899854 44.7652873,53.8916927 41.5290833,55.7022537 C38.3268465,57.4938146 39.754871,60.683961 42.6760629,61.4472049 C44.6070833,61.9514 47.7627894,61.1376439 49.7733771,61.0556195 C52.4177118,60.9481073 55.0643731,60.9249366 57.710569,60.8883268 C62.1607567,60.8285463 66.6090833,60.8790585 71.0597363,60.8790585 C75.6053118,60.8790585 80.2285935,61.0032537 84.7662588,60.6691317 C90.507671,60.2464976 90.3531894,55.9474 84.7383404,55.409839 C75.1995649,54.4969122 65.3504302,54.7795951 55.7809445,54.9302049" id="Fill-273" fill="#89C5CC"></path>
            <path d="M46.2926082,103.079634 C46.2926082,105.122366 48.1049755,103.079634 48.0919469,103.079634 C48.1049755,103.079634 46.2926082,101.036902 46.2926082,103.079634" id="Fill-275" fill="#89C5CC"></path>
            <path d="M5.2970449,86.6369878 C5.41383673,92.5742561 5.49061224,98.5170854 5.74420408,104.44972 C5.82470204,106.325622 5.28727347,109.988915 7.56122449,110.945402 C10.0920245,112.009866 10.8788571,109.356354 11.1706041,107.558305 C12.0937714,101.862012 11.188751,95.3579878 11.0998776,89.5940366 C11.070098,87.6588171 11.4888735,84.9645244 9.29076735,83.9996951 C7.49794286,83.2123537 5.26075102,84.6739634 5.2970449,86.6369878" id="Fill-277" fill="#89C5CC"></path>
            <path d="M102.935439,86.7302268 C103.085268,87.0838122 103.085268,87.0838122 102.935439,86.7302268 M103.147153,86.6695195 C103.268598,86.7204951 103.760427,86.9267146 103.147153,86.6695195 M55.1833984,81.870861 C46.0685167,82.0135927 36.9480514,82.1220317 27.8392188,82.5122268 C23.9515861,82.6790561 20.0192841,82.8134463 16.1451453,83.1800073 C13.4012351,83.4395195 6.58450041,83.5474951 4.80470449,85.7899585 C1.13204327,90.4185439 8.92033714,89.1562024 10.5977657,88.7803732 C13.6506392,88.0959098 16.7667943,87.8767146 19.8857412,87.7122024 C26.6531535,87.3553732 33.4233576,87.1644463 40.1991453,87.0282024 C58.5736188,86.6583976 76.9615861,86.7144707 95.339782,86.6315195 C97.1191127,86.6236415 100.334843,85.9081293 101.978304,86.6278122 C103.624558,87.3493488 103.531496,89.1228366 103.702729,91.1822512 C103.930264,93.9219585 102.123015,99.1432512 103.499856,101.447812 C105.636076,105.022593 108.741994,101.987227 109.217072,99.3809829 C109.872688,95.7797878 108.833194,91.4556659 107.815104,88.013422 C106.37917,83.1568366 104.385333,82.9635927 99.6876024,82.5840561 C94.1993167,82.1405683 88.7305739,81.8717878 83.2241412,81.8208122 C73.8793984,81.7350805 64.5276759,81.7258122 55.1833984,81.870861" id="Fill-279" fill="#89C5CC"></path>
            <path d="M91.2337347,106.414041 C71.4642735,108.709798 51.1322571,107.35709 31.2571714,107.438188 C26.4240367,107.458115 21.5867143,107.496578 16.7582327,107.731066 C14.2078898,107.854334 8.16263265,107.151334 6.41540816,109.118529 C2.7325102,113.26609 9.3668449,113.869456 11.7887633,113.697529 C16.6856449,113.349505 21.5941592,113.190554 26.5036041,113.152554 C43.7962408,113.01909 61.1865918,113.825895 78.4652694,112.972749 C85.7040367,112.615456 92.7813429,111.377212 99.886102,109.993456 C101.460233,109.686676 112.235327,107.638383 106.090959,105.183212 C102.45971,103.732261 95.0483143,105.9687 91.2337347,106.414041" id="Fill-281" fill="#89C5CC"></path>
            <path d="M33.512138,98.8220122 C33.3744073,98.9990366 33.3744073,98.9990366 33.512138,98.8220122 M33.3795257,98.7914268 C33.3325298,98.9184024 33.1873543,99.2321341 33.3795257,98.7914268 M32.1325053,97.1829146 C32.1613543,97.2199878 32.2790767,97.3705976 32.1325053,97.1829146 M32.0845788,97.1708659 C32.5605869,97.7390122 32.8811829,98.3729634 33.0459012,99.0722561 C28.9498114,100.181671 27.3714931,96.8682561 32.0845788,97.1708659 M31.8254033,97.015622 C31.8267992,97.0165488 32.4028482,97.2589146 31.8254033,97.015622 M25.0966114,92.0788659 C22.4457624,95.3802317 20.2574278,99.2275 23.5624971,102.998305 C26.5176563,106.369646 32.463338,106.804793 36.2137053,104.553988 C40.077142,102.234598 39.7435176,97.352061 37.0484645,94.1651585 C35.313338,92.1131585 33.9067176,92.1701585 31.3889461,91.8351098 C29.6747584,91.6071098 26.5511584,90.2743293 25.0966114,92.0788659" id="Fill-284" fill="#89C5CC"></path>
            <path d="M52.5001641,98.1888951 C52.5001641,102.584846 71.4813967,100.692724 74.8581233,100.68809 C77.6867192,100.68392 94.7904416,102.244237 93.5629641,97.7203829 C92.5541804,94.0033341 75.7068416,95.8509683 72.1188661,95.8454073 C69.0176008,95.8412366 52.5001641,93.7118463 52.5001641,98.1888951" id="Fill-286" fill="#89C5CC"></path>
        </g>
        <g id="Humaaan" transform="translate(446.000000, 507.500000) scale(-1, 1) translate(-446.000000, -507.500000) translate(187.000000, 171.000000)">
            <g id="Head/Front/Short-2" transform="translate(185.523542, 105.500293) scale(-1, 1) rotate(12.000000) translate(-185.523542, -105.500293) translate(76.132237, 21.902207)">
                <g id="Head" stroke-width="1" transform="translate(86.869565, 49.837321)" fill="#B28B67">
                    <path d="M61.3610274,14.6842175 C70.6831143,32.0487004 69.575408,76.0951512 57.5274414,79.1986686 C52.7227,80.4363546 42.4871396,77.404494 32.0697582,71.1294887 L38.6086957,117.358852 L0,117.358852 L13.2906861,55.447306 C5.87839999,46.7520692 0.861703447,36.096063 1.70003149,24.1557536 C4.1155747,-10.2488369 52.0389406,-2.68026534 61.3610274,14.6842175 Z"></path>
                </g>
                <path d="M97.1943965,113.030271 C92.3486251,91.4859815 78.5438135,76.799961 80.6521394,67.1705847 C82.05769,60.7510006 85.8039036,56.7588865 91.8907804,55.1942427 C95.0388554,42.4670253 105.192043,37.0536437 122.350344,38.9540978 C148.087795,41.8047791 163.796503,52.4863489 157.012688,75.990464 C150.776768,75.990464 143.248678,73.7367058 132.838896,77.5981195 C129.535914,78.8233304 127.173524,82.6228172 125.751727,88.9965797 L121.047588,88.9965797 C116.482022,81.4326661 111.980345,78.6531343 107.542557,80.6579842 C103.104769,82.6628341 102.095987,87.5326226 104.516213,95.2673496 L102.198948,113.030271 L97.1943965,113.030271 Z" id="Hair" fill="#191847"></path>
            </g>
            <g id="Bottom/Standing/Jogging" transform="translate(276.500000, 481.000000) scale(-1, 1) translate(-276.500000, -481.000000) translate(35.000000, 289.000000)">
                <polygon id="Leg" fill="#997659" points="209.3 0 328.933325 199.594699 418.6239 368.335194 437.942453 368.335194 287.664637 8.17868425e-13"></polygon>
                <g id="Accessories/Shoe/Flat-Sneaker" transform="translate(402.500000, 319.732218)" fill="#E4E4E4">
                    <path d="M4.79322375,39.5566908 C2.67107458,44.9891444 1.61,48.9982497 1.61,51.5840067 C1.61,54.4813368 2.09366687,58.7092621 3.06100061,64.2677824 C6.42902168,64.2677824 36.6979942,64.2677824 93.8679182,64.2677824 C96.2276681,56.4825556 94.8654837,52.2795621 89.7813648,51.6588021 C84.6972459,51.038042 80.473782,50.4775453 77.1109731,49.9773121 L34.3305463,30.9447401 C33.8259455,30.7202484 33.2348993,30.9473217 33.0104076,31.4519225 C33.0067689,31.4601014 33.0032401,31.4683289 32.9998223,31.4766027 L30.0477731,38.6228406 L30.0477731,38.6228406 C25.3412088,40.814303 21.5166366,41.9100343 18.5740566,41.9100343 C15.9702477,41.9100343 12.285966,40.7670876 7.52121129,38.4811942 L7.52120556,38.4812062 C6.52532036,38.0034298 5.33068159,38.4234399 4.85290519,39.4193251 C4.8313033,39.4643525 4.81139553,39.5101731 4.79322375,39.5566908 Z" id="shoe"></path>
                </g>
                <path d="M393.714321,341.314767 L430.969812,330.067905 C414.647166,281.372183 394.641446,227.784327 370.952652,169.304335 C347.263858,110.824344 321.822974,54.3895657 294.63,4.56650059e-14 L189.406958,4.56650059e-14 C219.639697,68.8003031 251.690455,131.31421 285.559231,187.541721 C319.428008,243.769232 355.479704,295.026914 393.714321,341.314767 Z" id="Pant" fill="#DB2721"></path>
                <path d="M201.437771,4.56650059e-14 C190.146632,70.1389477 168.369117,159.749573 166.313906,162.514983 C164.943766,164.35859 115.618369,180.853073 18.3377138,211.998431 L22.5107546,228.998863 C138.517707,212.295406 199.643478,199.336177 205.888067,190.121176 C215.25495,176.298674 262.025062,67.100605 280.14,4.56650059e-14 L201.437771,4.56650059e-14 Z" id="Leg" fill="#B28B67"></path>
                <path d="M52.5335075,197.302859 L59.8838645,224.683283 C146.650306,232.277616 199.814021,226.790233 219.37501,208.221134 C238.935999,189.652035 261.229752,120.24499 286.256269,-1.82660024e-13 L185.919815,-1.82660024e-13 C170.063603,98.4644673 161.198948,149.763416 159.325851,153.896845 C157.452754,158.030274 121.855306,172.498945 52.5335075,197.302859 Z" id="Pant" fill="#FF4133"></path>
                <g id="Accessories/Shoe/Flat-Sneaker" transform="translate(39.445000, 247.430962) rotate(80.000000) translate(-39.445000, -247.430962) translate(-9.660000, 215.297071)" fill="#E4E4E4">
                    <path d="M4.79322375,39.5566908 C2.67107458,44.9891444 1.61,48.9982497 1.61,51.5840067 C1.61,54.4813368 2.09366687,58.7092621 3.06100061,64.2677824 C6.42902168,64.2677824 36.6979942,64.2677824 93.8679182,64.2677824 C96.2276681,56.4825556 94.8654837,52.2795621 89.7813648,51.6588021 C84.6972459,51.038042 80.473782,50.4775453 77.1109731,49.9773121 L34.3305463,30.9447401 C33.8259455,30.7202484 33.2348993,30.9473217 33.0104076,31.4519225 C33.0067689,31.4601014 33.0032401,31.4683289 32.9998223,31.4766027 L30.0477731,38.6228406 L30.0477731,38.6228406 C25.3412088,40.814303 21.5166366,41.9100343 18.5740566,41.9100343 C15.9702477,41.9100343 12.285966,40.7670876 7.52121129,38.4811942 L7.52120556,38.4812062 C6.52532036,38.0034298 5.33068159,38.4234399 4.85290519,39.4193251 C4.8313033,39.4643525 4.81139553,39.5101731 4.79322375,39.5566908 Z" id="shoe"></path>
                </g>
            </g>
            <g id="Body/Long-Sleeve" transform="translate(246.139601, 290.636610) scale(-1, 1) rotate(21.000000) translate(-246.139601, -290.636610) translate(40.226557, 140.320820)">
                <path d="M109.342709,119.689443 L144.568948,119.82156 C105.942421,206.689306 85.8019502,252.171881 84.1475364,256.269285 C80.4251056,265.488443 88.3022698,279.529062 91.6708579,287.074385 C80.6994788,291.980576 81.8684909,273.810948 68.0283913,280.245691 C55.3957902,286.119026 45.7862019,296.761116 31.1910566,287.761286 C29.3966693,286.65481 27.4303131,282.488727 32.1812783,279.233154 C44.0176651,271.122334 61.0746155,256.926938 63.3792782,252.254413 C66.5220974,245.882591 81.8432409,201.694267 109.342709,119.689443 L109.342709,119.689443 Z M408.115074,88.9277805 C400.998136,94.8570443 393.776998,101.416048 395.045021,104.580393 C396.313044,107.744737 402.931706,106.567389 404.028157,111.43442 C404.759124,114.679107 394.017438,115.206337 371.803099,113.016108 L320.265363,133.435407 L308.869565,104.997251 L372.385496,96.3390209 C385.091259,89.2763679 396.779945,84.4950753 407.451553,81.9951431 C410.454654,81.9075181 415.232011,82.9985167 408.115074,88.9277805 Z" id="Skin" fill="#997659"></path>
                <path d="M198.636211,15.5495138 L226.272287,14.9748848 C238.391696,75.563556 278.631178,110.983024 360.010553,90.6805075 L377.867256,168.508397 C301.607639,185.218359 231.263429,160.276382 210.090119,77.9348524 C204.609018,56.6192317 199.805976,34.3573488 198.636211,15.5495138 Z" id="Clothes-Back" fill="#AFB9C5" transform="translate(288.251734, 94.195348) rotate(5.000000) translate(-288.251734, -94.195348) "></path>
                <path d="M192.202379,0 L192.224327,0.026 L234.013103,9.59010971 C234.013103,80.700501 256.453113,126.327513 268.296559,178.475156 L268.652174,180.057416 L155.792011,180.056894 C154.202151,198.305393 153.225835,217.061548 152.717082,236.325359 L152.717082,236.325359 L68.211327,236.325359 C87.3608051,134.502831 127.778875,55.7277113 189.465536,0 L189.465536,0 L192.202379,0 Z" id="Clothes" fill="#C5CFD6"></path>
                <path d="M173.598416,77.5823869 C170.689742,122.342487 172.400277,156.50083 178.730021,180.057416 L178.730021,180.057416 L155.792011,180.056894 C158.872256,144.701677 164.255524,111.252019 173.003441,79.7079184 Z" id="Shade" fill-opacity="0.1" fill="#000000"></path>
            </g>
        </g>
        <g id="Group-2" transform="translate(256.000000, 200.000000)">
            <g id="Head" transform="translate(61.000000, 117.000000) scale(-1, 1) translate(-61.000000, -117.000000) translate(0.000000, 11.000000)" fill="#B28B67">
                <path d="M111.326959,26.969588 C128.159505,58.3372293 126.159361,137.903853 104.404796,143.510125 C95.7291243,145.745894 77.2473865,140.269173 58.4372687,128.934034 L70.2439202,212.443646 L0.529634507,212.443646 L24.5278931,100.604782 C11.1439349,84.8975377 2.08558938,65.6483591 3.59931814,44.0792105 C7.96097467,-18.0701126 94.494414,-4.39805337 111.326959,26.969588 Z"></path>
            </g>
            <path d="M8.46443687,37.9315988 C24.3626552,-28.1457264 113.510105,12.9518102 130.675729,1.76999148 C134.393912,25.6118953 122.559111,44.8826005 81.0006102,41.6256805 C71.0258597,46.6227602 64.1269162,56.5912257 55.8803967,69.8651678 C53.9234149,69.1089226 51.7983109,68.6937766 49.5768602,68.6937766 C39.8789427,68.6937766 32.0172272,76.6057445 32.0172272,86.3656516 C32.0172272,91.291255 34.0195996,95.74619 37.2498196,98.9509807 C33.1120068,104.861362 28.4569009,111.050244 23.0941927,117.443777 C3.58651115,105.666229 -10.8716614,71.1093687 8.43578121,37.9988774 Z" id="Hair" fill="#191847" transform="translate(66.000000, 58.500000) scale(-1, 1) translate(-66.000000, -58.500000) "></path>
        </g>
        <g id="Group" transform="translate(313.500000, 614.000000) scale(-1, 1) translate(-313.500000, -614.000000) translate(16.000000, 357.000000)">
            <path d="M97.811753,264.052583 L157.062099,264.285637 C120.477744,382.411311 100.727629,445.088054 97.811753,452.315865 C91.2510322,468.578441 105.1344,493.346062 111.071479,506.655996 C91.7346102,515.310507 93.7949742,483.259321 69.4020349,494.610194 C47.1372911,504.970745 30.2005559,523.743369 4.4768615,507.867688 C1.31428443,505.915867 -2.15138479,498.566906 6.22211019,492.824082 C27.0835398,478.516612 57.1461238,453.475963 61.2080524,445.233639 C66.7472176,433.993758 78.9484511,373.600073 97.811753,264.052583 L97.811753,264.052583 Z M454.312226,253 L534.630294,331.370187 C557.999891,341.340678 577.147947,352.350114 592.074462,364.398493 C595.431211,368.448364 599.08558,376.208125 583.292239,372.735743 C567.498899,369.263361 550.730542,366.321372 547.762213,371.458574 C544.793884,376.595775 553.540308,384.467793 548.054468,391.191068 C544.397241,395.673251 532.097699,381.416304 511.155841,348.420227 L427.635672,299.16834 L454.312226,253 Z" id="Skin" fill="#B28B67"></path>
            <path d="M250.11608,26.1802421 L274.156234,19.8523928 C325.374494,121.302832 407.095507,210.405348 519.319274,287.159939 L448.619668,390.350407 C333.222088,277.178191 257.64572,156.611274 250.11608,26.1802421 Z" id="Coat-Back" fill="#191847" transform="translate(384.717677, 205.101400) rotate(5.000000) translate(-384.717677, -205.101400) "></path>
            <path d="M159,323 L378,323 C327.262733,200.104583 301.894099,95.7063835 301.894099,9.80540251 L235.832618,0 C183.914501,83.1821527 169.252688,185.596225 159,323 Z" id="Shirt" fill="#DDE3E9"></path>
            <path d="M239.278121,0 C244.408156,0.177219711 252.221857,0.496516209 262.719225,0.957889493 L262.719225,0.957889493 L278.589512,46.4568638 C280.268237,101.930751 290.071733,213.725601 308,381.841414 L308,381.841414 L165.273301,381.84077 C165.647456,393.452046 166.264387,405.17179 167.124096,417 L167.124096,417 L61,417 C76.8742928,237.332467 134.845225,98.3324673 234.912797,1.70530257e-13 L234.912797,1.70530257e-13 L234.964,0.047 L234.990897,0 Z" id="Coat-Front" fill="#2F3676"></path>
            <path d="M205,383 L164.476503,382.998066 C162.702655,331.16279 165.881351,281.496378 174.01259,233.998829 C178.140621,306.047044 188.46901,355.713346 205,383 Z" id="Shade" fill-opacity="0.1" fill="#000000"></path>
            <polygon id="Light" fill-opacity="0.2" fill="#FFFFFF" points="196 295 266 262 266 295"></polygon>
        </g>
        <g id="Checkmark!" transform="translate(369.000000, 152.000000)" fill="#F5A623">
            <path d="M27.2997754,11.2407133 C37.4015206,12.6726911 47.9094609,17.3103794 47.8210712,28.7889853 C47.7470821,38.4400502 39.4553385,48.7116064 28.8083583,48.1347433 C19.226523,47.616536 10.2043234,37.3876386 9.00460768,28.6217435 C8.38290071,24.0800374 9.54587014,19.1902744 12.2824733,15.4542376 C15.8682129,10.5591423 21.5579242,10.5668985 27.2997754,11.2407133 M22.528224,5.00186636 C15.222174,5.04064707 9.87658647,7.62101866 5.35481036,13.0668001 C3.73300926,15.0194089 1.84703236,17.1213235 0.612556694,19.3337631 C-0.540481318,21.3998055 -0.338376895,26.6541071 3.61830135,24.1910472 C2.64402892,34.3632278 8.73397645,44.2363123 17.4885243,49.4484399 C27.0048122,55.1147866 37.761038,54.0100211 45.6808499,46.0682161 C52.9307875,38.798287 55.4821696,26.5188594 50.178294,17.5280362 C44.8773979,8.5415758 32.5952092,4.90539934 22.528224,5.00186636" id="Fill-292"></path>
            <path d="M43.5204841,0.713600457 C38.7717889,4.15608551 34.435958,8.6890565 30.834612,13.2868483 C27.3144275,17.7809268 24.987466,23.3924168 20.75901,27.3110857 C18.6236095,25.0104446 16.1217227,18.7971181 11.862012,21.2623044 C8.32720834,23.3076511 10.6032549,26.825428 12.324783,29.1350443 C16.7705094,35.0990599 21.7072368,37.4994254 27.4086956,31.6067127 C32.5868907,26.2555033 35.5273513,19.1167347 40.3688023,13.457377 C42.4926083,10.9742403 45.7733417,8.50955264 47.4646233,5.76812986 C48.997615,3.2829987 47.1016657,-1.88970407 43.5204841,0.713600457" id="Fill-294"></path>
        </g>
        <g id="Checkmark!" transform="translate(571.000000, 206.000000)" fill="#F5A623">
            <path d="M17.5130635,7.03046069 C23.9934283,7.95527967 30.7343711,10.9504534 30.6776683,18.3637197 C30.6302036,24.5966991 25.3109719,31.2304124 18.4808336,30.857855 C12.3339959,30.5231795 6.54616971,23.9170166 5.77654078,18.2557093 C5.37770989,15.3225242 6.12376575,12.1645522 7.87932248,9.75169514 C10.1796083,6.59027942 13.8296117,6.59528859 17.5130635,7.03046069 M14.4520683,3.00120535 C9.76516821,3.02625123 6.3359234,4.69274122 3.43516136,8.20980839 C2.39476066,9.47086826 1.18488868,10.8283547 0.392960898,12.257222 C-0.346723864,13.591541 -0.21707197,16.9849442 2.32117445,15.394218 C1.69616949,21.9637513 5.60292829,28.3401183 11.2190533,31.7062841 C17.3238418,35.3657997 24.2240621,34.6523053 29.3046962,29.5232229 C33.9555995,24.8280603 35.5923352,16.8975967 32.189849,11.0910234 C28.7892741,5.28726771 20.9101342,2.93890374 14.4520683,3.00120535" id="Fill-292"></path>
            <path d="M28.170832,0.468937443 C25.1716561,2.73114191 22.4332366,5.70995141 20.1587023,8.73135746 C17.9354279,11.684609 16.465768,15.3721596 13.7951642,17.9472849 C12.4464902,16.435435 10.8663512,12.3523919 8.17600759,13.9723714 C5.9435,15.3164564 7.38100311,17.6281384 8.46828397,19.1458863 C11.2761112,23.0650965 14.3940443,24.6424795 17.9949657,20.7701255 C21.2654046,17.2536164 23.1225376,12.5624256 26.1802962,8.84341916 C27.5216474,7.21164363 29.5936895,5.59199173 30.6618673,3.79048534 C31.6300726,2.15739915 30.4326309,-1.24180553 28.170832,0.468937443" id="Fill-294"></path>
        </g>
        <g id="Big-Cards" opacity="0.5" transform="translate(517.000000, 4.000000)">
            <path d="M3.30359023,47.1481262 C3.64761338,39.7799535 4.12055904,32.4220758 4.36978623,25.0494418 C4.49319334,21.396069 4.59005757,17.742353 4.68347468,14.0882939 C4.70415744,13.2746412 4.72552962,12.4613316 4.74379938,11.6476789 C4.8044688,8.88345594 4.47526828,8.65730784 7.26847431,8.4119423 C19.7294893,7.31654816 32.2397982,6.9534758 44.7159806,5.96240491 C59.7623399,4.76714872 74.8872938,3.94182826 89.9763975,3.57189252 C96.6817466,3.4071716 103.415362,3.06606202 110.121745,3.27367902 C111.607801,3.31966361 114.524414,2.93462846 115.109392,4.08492956 C115.362066,4.58183768 114.831898,6.29184676 114.764679,6.86528147 C114.554404,8.6566215 114.358263,10.4541386 114.237269,12.254401 C113.523714,22.8720371 113.949089,33.7573447 116.013573,44.2140348 C111.170706,41.4944237 105.052057,39.1550435 99.4073889,39.6193506 C93.6527571,40.09258 89.3479865,43.4038138 84.741937,46.451494 C82.1362546,48.1752298 81.2586164,48.6285555 78.6591388,46.9586972 C76.4191965,45.5194481 74.2999035,43.8739547 72.1864707,42.2590033 C68.925145,39.7665699 65.8472064,37.0641173 62.6844685,34.4512316 C56.869512,29.6468714 48.8580469,22.8085509 40.8265886,24.821921 C35.088503,26.2604838 29.7899259,29.4011627 24.8095186,32.4749237 C17.4102631,37.0414681 10.712153,42.6337434 3.30359023,47.1481262 M103.029629,0.00156653008 C74.4405463,0.00156653008 46.0655303,2.76167149 17.5571106,4.25479802 C14.5798281,4.41059655 11.6125422,4.64017634 8.64560106,4.92534944 C6.66832971,5.11546484 1.83304637,4.3172547 0.537271783,5.99981029 C-0.327267365,7.12231474 0.415588243,7.29081052 0.537271783,8.35737849 C0.69066888,9.70156985 0.59966476,11.2942153 0.560022813,12.7169922 C0.464882141,16.1452464 0.364915494,19.5731575 0.286665738,23.0017548 C-0.00840822936,35.9598007 -0.192829459,48.9154445 0.333891361,61.8700587 C0.44868065,64.6953657 1.48247367,68.6071444 0.916800332,71.3524931 C0.507626501,73.3401256 -0.861227149,74.5497948 2.29530593,74.9169852 C5.40151098,75.2786849 9.19955418,74.3589931 12.3085169,74.0645545 C15.4354047,73.7680568 18.5619478,73.4465078 21.6926275,73.1894746 C35.3039483,72.0724608 49.0472941,72.2412997 62.6944651,71.8699913 C76.4646985,71.4955944 90.2397579,71.4715726 104.014473,71.4640229 C109.778067,71.4609344 116.363801,71.7835129 121.987442,70.2039078 C123.966092,69.6479747 124.285985,69.3741262 123.798217,67.4190947 C123.705489,67.0481295 123.108102,66.9112052 122.932644,66.2406538 C122.694447,65.3281685 122.81682,64.2190477 122.760977,63.269157 C122.578968,60.166913 122.515541,57.0591782 122.368694,53.9548752 C122.123603,48.7682251 121.225972,43.7346283 120.562055,38.6001399 C119.795759,32.6705298 119.835056,26.6499801 119.819544,20.681592 C119.810582,17.3710446 119.89607,14.0714787 120.162878,10.7701968 C120.3342,8.65284665 121.381092,5.49157761 120.850235,3.51698555 C120.58584,2.53380754 120.152881,1.75412851 119.125293,1.33100164 C118.474476,1.06264381 117.927072,1.27266298 117.283494,1.2047156 C116.5203,1.12407098 116.043907,1.01734555 115.129385,0.81110123 C111.211726,-0.0732442222 107.02209,0.00156653008 103.029629,0.00156653008" id="Fill-67" fill="#69A1AC"></path>
            <path d="M87.0548163,14.6542775 C87.0527294,16.6635953 86.7264786,19.6286171 87.690275,21.5206439 C88.9128462,23.9205973 90.4421904,23.170403 90.8473954,20.9151419 C91.0793882,19.6229364 91.0738232,15.7987833 90.6418365,14.6542775 C90.0307248,13.0342588 87.0548163,11.930855 87.0548163,14.6542775" id="Fill-69" fill="#89C5CC"></path>
            <path d="M90.6520609,15.0141399 C88.6979649,15.0792458 83.0070888,14.6359363 81.6849661,16.1209415 C79.4171343,18.6679268 83.3651493,19.1190883 85.0602228,18.976444 C87.0219371,18.8115525 93.0836863,19.2139664 94.3974981,17.7273253 C96.5950337,15.2402114 92.1885351,14.961139 90.6520609,15.0141399" id="Fill-71" fill="#89C5CC"></path>
            <path d="M15.6719817,84.275962 C24.3550583,85.7757959 21.6536723,98.9399602 13.4375106,95.8908895 C10.5747694,94.8283768 6.35643504,91.7584316 7.93883544,88.1412262 C9.12082309,85.4386725 12.9730458,84.0185097 15.6719817,84.275962 M12.0770172,80.1828177 C6.42993738,81.1280853 2.56931442,87.2046563 4.50557609,92.5050434 C6.37323558,97.6186035 13.4578112,101.363143 18.6824276,99.5254903 C23.6700865,97.7709874 26.1583157,91.1722056 24.4768622,86.3449743 C22.7198062,81.3013438 16.9960739,79.3593182 12.0770172,80.1828177" id="Fill-73" fill="#89C5CC"></path>
            <path d="M63.7755259,86.0168878 C61.6460226,86.187763 59.8054643,87.628711 57.6625137,87.883858 C55.6588635,88.1223506 53.9982923,87.4598343 52.1222192,86.9302209 C49.8544499,86.2903548 47.7745983,86.0088936 45.4571774,86.5774785 C43.6862692,87.0121611 41.9394973,88.1766442 40.0999733,88.3172083 C36.4802315,88.59334 32.2732902,84.6022539 29.4472849,89.1162915 C28.092554,91.2803782 30.059655,92.6743604 32.0860622,91.6650973 C34.1986701,90.6131986 33.1615027,90.2364737 35.7820055,90.8580199 C37.9684012,91.375975 39.7355166,91.6574362 41.9257052,90.9312997 C43.9097016,90.2737798 45.6513015,89.0703251 47.8073546,88.9350905 C49.9185833,88.8028537 51.7553488,89.7321752 53.7734807,90.1332157 C56.2553727,90.6261891 58.4514229,90.2531282 60.8029793,89.5013437 C63.0397163,88.7861992 63.9320665,88.3951514 66.1891468,89.033019 C67.6183552,89.4370573 70.7405463,90.7204537 72.1314816,89.6862088 C74.5368272,87.8981809 71.3167121,87.6367051 70.0485267,87.3825573 C68.0069482,86.9738557 65.8943403,85.8493434 63.7755259,86.0168878" id="Fill-75" fill="#89C5CC"></path>
            <path d="M112.303312,84.0603981 C112.321102,84.0733376 112.338535,84.086277 112.355613,84.0992164 C112.338535,84.086277 112.320746,84.0733376 112.303312,84.0603981 M110.146167,83.6282893 C113.354311,83.8261263 116.823604,89.4214082 112.572644,89.6199263 C109.580463,89.7598764 106.233206,84.8602592 110.146167,83.6282893 M109.696094,79.0497742 C99.5514986,81.7619468 104.188845,95.4549281 113.974095,93.8732531 C118.418248,93.1547742 119.924656,88.2248515 118.45525,84.5755917 C117.824437,83.0082182 116.594121,81.6866938 115.123647,80.7846793 C114.038848,80.1193202 110.935661,78.7191377 109.696094,79.0497742" id="Fill-77" fill="#89C5CC"></path>
            <path d="M4.10311967,114.468577 C9.06033463,111.590496 7.09997052,121.744874 7.01860339,123.502316 C6.77415869,128.793423 7.10580698,133.85132 7.64104474,139.108965 C8.13130743,143.927846 7.567574,148.724875 7.37943398,153.544099 C7.27952751,156.102583 7.22493944,158.65731 7.03130627,161.211355 C6.97113184,162.008077 7.06385204,165.599103 6.64350152,167.510289 C7.72455266,167.462347 8.75286134,167.510441 9.32651156,167.493179 C13.3423398,167.372306 17.3585113,167.266456 21.3736528,167.116218 C36.8196741,166.538485 52.2742784,166.799694 67.7172098,166.070016 C82.3238107,165.379263 96.9839697,165.232781 111.601557,165.054203 C112.880428,165.165174 113.452401,166.500584 112.63152,167.526983 C111.828492,168.531187 108.105517,168.310951 106.945091,168.404167 C102.827983,168.733325 98.7187717,168.881514 94.5893042,168.920781 C85.892978,169.00307 77.2296105,169.373885 68.5477038,169.866597 C53.1219385,170.741391 37.6735139,170.669004 22.2395089,171.293516 C18.4931879,171.44512 14.7465235,171.558481 10.9984859,171.656136 C9.02198565,171.707695 3.84607508,172.892184 2.86692299,170.542668 C2.17525372,168.882347 3.13685937,168.118201 4.54326441,167.770473 C4.25390456,166.493185 4.41035292,164.539686 4.39425606,164.08807 C4.31872539,161.971423 4.29228966,159.853751 4.21023589,157.737786 C4.01522944,152.695254 3.88579734,147.6237 3.49509781,142.592436 C3.12190765,137.783115 2.17914761,133.119593 2.15202523,128.274419 C2.13382921,124.997525 1.21853486,116.694489 4.10311967,114.468577 Z M111.681295,113.358216 C111.684091,111.206741 114.277196,110.774124 115.427322,112.237237 C116.527324,113.63684 115.819395,117.874232 115.846174,119.548702 C115.934751,125.066532 116.459003,130.552607 116.957162,136.045169 C117.451544,141.49266 117.801389,146.942541 118.182818,152.398569 C118.359629,154.920176 120.30729,164.98441 117.476263,166.453669 C113.863151,168.32857 114.544987,158.789144 114.443707,157.05014 C114.118925,151.452411 113.710716,145.84717 113.201571,140.263441 C112.37863,131.236531 111.674478,122.421661 111.681295,113.358216 Z M89.9870834,108.010873 C94.6603717,107.96785 99.3079109,108.049115 103.974333,108.315446 C106.043873,108.433588 108.112383,108.547632 110.183297,108.634702 C111.379771,108.685236 114.112951,108.294959 115.162141,108.847083 C119.281652,111.01529 110.889165,111.252939 109.868815,111.235867 C105.587599,111.164162 101.314623,110.832614 97.0337512,110.728131 C81.2883539,110.343317 65.4255407,111.296645 49.6942195,111.93857 C42.1267334,112.247583 34.5633671,112.29163 26.9986275,112.714344 C22.8640102,112.945506 18.7314528,113.209788 14.5961488,113.426609 C12.6896861,113.526654 10.7825368,113.623625 8.87332756,113.671428 C7.69745242,113.701135 5.30278698,114.185652 4.21583202,113.743474 C3.29023804,113.366855 2.5417978,112.840339 3.05059983,111.724481 C3.59854049,110.523602 5.98324961,111.034753 6.99261397,111.01529 C10.6366253,110.944951 14.2727402,110.741447 17.9102285,110.519846 C26.1695068,110.016891 34.4112758,109.428573 42.6873769,109.288237 C58.4585233,109.02054 74.2087272,108.15633 89.9870834,108.010873 Z" id="Image-Border" fill="#69A1AC"></path>
            <path d="M97.8008512,122.046956 C98.6270798,121.790455 99.1494319,122.635819 98.9618242,123.345109 C98.7107659,124.29457 95.7676909,125.063052 94.9510656,125.425011 C91.7195479,126.856857 88.4715674,128.253324 85.2400498,129.686191 C78.2001292,132.807405 71.1468326,135.899363 64.107941,139.022618 C63.9695268,139.084036 63.831118,139.145466 63.6927147,139.206907 C68.6426775,140.951293 73.5642398,142.774556 78.4641076,144.653006 C81.0858143,145.657918 83.6934591,146.695487 86.3093352,147.714687 C87.6195026,148.224967 93.0676727,149.506451 93.3811525,150.804604 C93.8232483,152.63753 88.0156397,150.386174 87.0916629,150.092933 C84.4816174,149.265259 81.9041545,148.33859 79.3266916,147.417024 C73.5595541,145.355492 67.8171109,143.228644 62.027337,141.229706 C61.4855247,141.042625 60.9434776,140.856189 60.4012019,140.670386 C54.2551539,143.410037 48.1224258,146.175071 42.0096695,148.983968 C38.7318501,150.490316 35.4715225,152.031702 32.2201122,153.59384 C29.8096786,154.752176 25.4470268,158.056751 22.7917085,157.999259 C21.7871324,157.977147 21.1100983,157.76351 21.0051477,156.555166 C20.8713871,155.010038 23.3799119,154.375249 24.3934053,153.872453 C27.8684357,152.148046 31.3650736,150.467183 34.8716579,148.807411 C41.8361238,145.511341 48.865755,142.346924 55.9204235,139.24544 C55.9600781,139.228006 55.9997338,139.210566 56.0393906,139.19312 C52.1282415,137.877561 48.2055151,136.595246 44.2742255,135.340052 C42.0270483,134.622598 26.2714276,130.764539 26.845912,128.693482 C27.4910494,126.372047 41.4457043,131.845653 43.5920467,132.524325 C49.5282712,134.401476 55.4459751,136.33816 61.3269805,138.37826 L59.3845073,137.710924 C71.9648218,132.103052 84.678578,126.127504 97.8008512,122.046956 Z" id="Image-X" fill="#89C5CC"></path>
            <path d="M17.3236979,178.878864 C20.5496392,179.436959 22.8250952,182.491045 22.4712424,185.689659 C21.9929049,190.011249 17.6287198,191.991893 13.597067,191.42803 C9.02242713,190.788172 8.06025,186.971412 10.2765586,183.29952 C10.7672758,182.486635 11.3315834,181.513955 12.223609,181.085799 C12.8367476,180.791654 13.6180437,181.051872 14.1118558,180.814724 C15.8432932,179.98318 14.8023675,178.658001 17.3236979,178.878864 M15.8549851,176.055819 C11.9185871,176.552167 4.64517459,181.047801 5.01347041,185.54581 C5.33293522,186.067264 5.81333602,186.280663 6.45467281,186.186008 C6.30027055,187.160384 6.35047708,188.124243 6.60563627,189.077924 C6.97943417,190.315911 7.72531058,191.33066 8.72497065,192.13676 C10.7834382,193.797135 13.5974108,194.204595 16.1606947,193.913504 C20.9471648,193.370337 24.7195319,190.141867 24.9884463,185.228595 C25.250827,180.432709 21.0090633,175.413246 15.8549851,176.055819" id="Fill-117" fill="#89C5CC"></path>
            <path d="M35.0401887,181.712532 C33.2670143,182.633242 30.4619049,184.04761 29.4220293,185.796383 C28.3234621,187.643211 29.4610419,189.663834 31.7755592,188.790124 C33.612949,188.096634 34.7816008,185.892748 36.7415523,185.186409 C38.4712259,184.563248 39.168274,184.880746 40.9963423,185.501539 C42.8799948,186.14093 44.5264646,186.759019 46.5627151,186.60213 C49.1220106,186.405004 51.3384786,184.951075 53.8435708,184.620391 C55.9526678,184.341777 57.6920082,185.145834 59.7120323,185.465698 C62.0555501,185.836619 63.5877441,184.967643 65.7803902,184.515234 C67.2718453,184.207204 69.9005349,185.45995 70.9883995,184.991312 C73.4344549,183.93772 70.8468494,182.649471 69.4928015,182.223774 C67.2117728,181.506954 65.8080097,182.139582 63.638495,182.734002 C61.2828935,183.379479 60.2654588,182.894273 58.0137759,182.301543 C53.4582782,181.10222 49.9388584,184.001964 45.6208888,183.47483 C41.6229605,182.98658 39.2307632,179.538739 35.0401887,181.712532" id="Fill-119" fill="#89C5CC"></path>
            <path d="M109.10023,179.441751 C113.53944,183.550615 108.552538,189.396571 103.657559,186.112791 C101.935142,184.956914 101.90753,183.100475 103.248275,181.439614 C104.474379,179.92052 107.168453,179.328267 109.10023,179.441751 L109.10023,179.441751 Z M107.454707,176.121408 C103.307343,176.917863 99.395205,178.796723 99.0198243,183.52233 C98.6531815,188.133074 103.443655,190.27443 107.467988,189.971922 C116.50299,189.292745 115.849744,174.519186 107.454707,176.121408 L107.454707,176.121408 Z" id="Fill-121" fill="#89C5CC"></path>
        </g>
    </g>
</svg>