<?xml version="1.0" encoding="UTF-8"?>
<svg width="740px" height="680px" viewBox="0 0 740 680" version="1.1" xmlns="http://www.w3.org/2000/svg" xmlns:xlink="http://www.w3.org/1999/xlink">
    <!-- Generator: Sketch 62 (91390) - https://sketch.com -->
    <title>Scene/Wireframe</title>
    <desc>Created with Sketch.</desc>
    <g id="Scene/Wireframe" stroke="none" stroke-width="1" fill="none" fill-rule="evenodd">
        <path d="M690.225393,195.334154 C689.69196,194.94624 688.426405,194.808691 687.837645,194.692486 C685.390395,194.21005 682.869376,194 680.374455,194 C672.681258,194.011519 664.863142,194.766681 657.297649,196.073733 C652.494316,196.903429 646.687447,199.695735 641.909168,198.179311 C633.58476,195.53709 625.17162,195.666846 617.273819,199.438932 C610.053162,202.888151 604.571642,209.438992 601.372783,216.517328 C600.890154,217.585871 598.932145,221.518544 598.377834,224.169574 C598.140868,224.711638 597.913298,225.257428 597.707998,225.81135 C597.125501,227.384012 596.603203,228.984455 596.11779,230.587948 C595.910402,231.271964 595.388799,232.78229 596.00818,233.074326 C595.018563,234.900742 594.141339,236.783059 593.410609,238.726357 C591.285576,244.378049 588.962202,250.577565 588.215465,256.567708 C587.938832,258.785765 587.928393,261.016696 588.185192,263.239158 C588.3122,264.337514 588.259657,266.546424 589.004306,267.381541 C590.584771,269.153751 591.396229,266.672793 591.21807,265.491094 C589.85752,256.484704 592.484669,248.027155 595.598275,239.561135 C597.611611,234.08663 600.919731,229.0783 604.625576,224.542582 C607.624702,220.871116 610.842002,217.979884 614.953229,215.545679 C619.980652,212.569071 625.355695,210.162647 630.681326,207.748769 C634.183959,206.160523 637.690767,204.614963 641.291179,203.246591 C642.091851,202.942019 643.35149,202.161447 644.239153,202.158398 C646.116434,202.151622 648.77664,203.536934 650.589894,204.052233 C656.554044,205.747877 662.594399,207.918842 668.758281,208.784789 C672.711879,209.340743 676.415985,208.714998 680.11348,207.397783 C680.491372,207.263622 681.124671,206.917718 681.900637,206.423762 C684.645747,205.367754 687.242622,204.038682 689.50371,202.12147 C690.806498,201.016676 691.988541,199.589016 693.066542,198.282304 C693.389107,197.891679 693.531773,197.443799 693.536645,197.018279 C693.780917,196.890555 693.94307,196.741487 693.979606,196.567349 C694.248585,195.281303 691.795767,195.257588 690.225393,195.334154" id="Twisted-Leaf" fill="#FFBD52"></path>
        <path d="M86.2264595,277.096804 C84.2843349,277.096804 82.3481315,277.135613 80.408445,277.236039 C78.9299086,277.312976 76.6704821,277.007952 75.4193861,277.925066 C74.119528,278.877583 74.2090413,280.827556 74.4121006,282.204588 C75.4855632,289.486686 78.1054809,295.943926 83.5863404,301.103114 C92.0253174,309.047345 101.699717,313.083801 113.147664,314.881262 C121.18923,316.14391 128.61291,314.390705 134.532629,308.699768 C138.857826,316.688595 142.139167,325.529173 143.785584,334.451794 C144.597821,338.854551 144.845812,343.204201 144.703008,347.687299 C144.611057,350.55881 144.451883,353.423513 144.142592,356.281407 C144.008497,357.523289 143.372151,359.403133 143.860817,360.576589 C144.43412,361.954642 146.367537,362.088089 147.235502,360.912932 C147.957878,359.934882 147.825175,358.014186 147.973552,356.85673 C148.219452,354.933992 148.44724,353.009893 148.610245,351.078303 C148.874954,347.951812 149.070699,344.816469 149.057152,341.678062 C149.02333,334.626774 147.447966,327.547912 145.29303,320.854414 C141.159049,308.013124 134.451474,296.600612 124.019521,287.646331 C117.605216,282.140247 110.264082,279.910442 101.935168,278.713497 C96.7496678,277.9683 91.4795303,277.096804 86.2264595,277.096804" id="Fill-16" fill="#DDE3E9" transform="translate(111.675502, 319.403558) rotate(-39.000000) translate(-111.675502, -319.403558) "></path>
        <path d="M130.485146,308.720509 C128.91013,296.178797 127.242815,283.708914 124.191353,271.410948 C122.392728,264.163915 120.087674,257.069392 117.993342,249.904742 C118.181076,250.803472 118.347216,251.70799 118.491412,252.61489 C117.762767,250.478023 116.241041,248.434093 115.365762,246.304715 C114.389475,243.929888 113.604405,241.463146 112.858693,239.011042 C111.402797,234.225304 110.029099,229.431395 108.390692,224.700465 C106.5649,219.429616 104.462557,214.246258 102.503366,209.021707 C100.840579,204.587631 99.2833264,199.932277 97.1186377,195.700755 C95.9389433,193.394354 94.8811541,190.917059 93.7230544,188.566062 C93.3353957,187.779333 90.0091243,178.9905 90.0342019,178.9905 C90.5841687,178.9905 92.6468053,182.897253 92.9884882,183.471215 C93.9870663,185.147483 94.8355267,186.891837 95.693043,188.639595 C96.0632866,186.564345 96.6494767,184.53267 97.5728217,182.624911 C97.8577317,182.03597 99.8576742,177.692788 100.508996,177.692788 C100.834309,177.692788 97.8281261,185.894382 97.4481301,186.614388 C97.1395357,187.199243 96.5613566,187.940696 96.3600388,188.562998 C96.034726,189.567942 96.2022586,189.316706 96.4707984,190.223266 C96.9629473,191.884896 98.0520835,193.512143 98.7375392,195.107729 C99.1137039,195.95948 100.04088,198.911673 100.942979,200.233896 C103.265796,204.774186 104.916393,210.310228 106.684716,215.206265 C107.06506,212.8008 107.722652,210.481463 108.633458,208.217957 C108.849404,207.680421 110.56792,202.692808 111.062855,202.692808 C111.619788,202.692808 109.487143,210.680954 109.197357,211.371002 C108.659232,212.652714 107.81321,213.893234 107.365644,215.197754 C106.87454,216.629595 107.73728,217.918456 108.286899,219.382978 C110.308784,224.770934 112.081286,230.212677 113.700885,235.727613 C123.106744,231.608092 124.977119,219.483745 125.590825,210.54274 C126.032818,204.098776 125.035285,197.536684 123.471415,191.285743 C121.384397,182.943211 117.873178,174.889022 114.147754,167.13475 C109.806883,158.099447 103.837358,150.029599 96.6397242,142.955843 C92.8752905,139.25607 88.5880575,136.049577 84.2336025,133.044959 C82.1065302,131.577033 79.9212918,130.35864 77.4382563,129.541953 C76.3188179,129.174291 75.169774,128.908076 74.0081912,128.70416 C73.1255973,128.549265 71.3248828,127.730876 70.5931031,127.939558 C64.6176567,129.592677 60.1259712,132.342315 56.643661,137.453843 C53.3469951,142.292348 51.3007287,148.076903 50.1631787,153.751499 C48.8967574,160.070526 48.5912977,166.441639 49.6783441,172.801176 C50.507648,177.653298 51.9381189,182.410101 53.3706796,187.120264 C58.4656219,203.873072 67.3960512,221.83372 83.4203204,231.023577 C88.607214,233.998578 94.3625344,235.737485 100.270759,236.659365 C101.662917,236.876558 103.053681,237.083198 104.462557,237.162517 C105.412373,237.216305 108.534889,236.585492 109.222086,236.995027 C110.164239,237.556393 110.705499,240.741098 111.116145,241.89583 C114.236223,250.672408 117.026459,259.54839 119.558257,268.503692 C122.251666,278.031595 124.391277,287.652093 126.173532,297.379827 C126.931434,301.51739 127.669831,305.648145 128.298514,309.808177 C128.445149,310.776014 128.293638,313.820122 129.238229,314.674937 C129.835565,315.215537 130.679846,314.993919 131.035113,314.332126 C131.652998,313.181479 130.646409,310.004604 130.485146,308.720509" id="Leaf" fill="#FFD48E" transform="translate(90.123641, 221.442244) rotate(-37.000000) translate(-90.123641, -221.442244) "></path>
        <path d="M680.980481,231.659775 C677.569531,230.91462 673.803318,230.971651 670.328853,231.033121 C651.695311,231.286515 633.397488,240.108514 621.488828,254.204657 C611.350902,266.205007 608.563234,281.124851 606.560426,296.206908 C606.361855,297.70439 606.276704,299.192311 606.164681,300.692867 C606.140601,301.014903 606.104656,301.302105 606.066268,301.572574 C605.278615,302.276749 604.865421,303.097718 605.331661,303.999623 C603.596522,307.796774 602.128704,311.690229 600.869228,315.705941 C597.162342,327.525979 593.391592,339.570724 595.714416,352 C596.257083,345.160073 597.398603,338.165788 598.76382,331.438216 C598.842341,331.051978 598.927144,330.668814 599.015436,330.287015 C599.02451,330.246718 599.032885,330.206421 599.041959,330.166465 C599.525299,328.106189 600.153466,326.107724 600.917388,324.140678 C600.925414,324.119163 600.933092,324.09799 600.941468,324.076817 C601.042323,323.817959 601.149461,323.560467 601.255202,323.302975 C601.474014,322.769892 601.698758,322.237833 601.937113,321.708506 C602.017728,321.528194 602.095202,321.346174 602.169535,321.162788 C603.281741,318.436925 603.75147,315.365464 604.747814,312.545006 C604.986169,311.903667 605.235342,311.264718 605.49638,310.629185 C605.511735,310.591961 605.52744,310.554737 605.543144,310.517514 C606.248785,308.807276 607.028411,307.11787 607.852706,305.446222 C608.300799,305.109501 608.540201,304.27419 608.926524,303.515033 C609.006441,303.365455 609.631118,302.36793 609.817126,301.793184 C610.30256,300.854056 610.786249,299.914586 611.275172,298.977165 C611.260515,298.982629 611.245858,298.988093 611.231201,298.993557 C611.720473,298.09336 612.211142,297.19692 612.697972,296.304236 C612.805109,296.108214 612.913294,295.911851 613.021129,295.715146 C613.195969,295.40199 613.370809,295.089175 613.5453,294.777043 C615.177489,291.856183 616.90809,288.993721 618.705347,286.166774 C619.346776,285.15798 620.879156,283.711381 621.172999,282.578622 C621.183817,282.536275 621.18626,282.497344 621.192891,282.456706 C625.092764,276.979369 629.582417,271.927201 634.966511,267.924124 C634.31566,268.627616 632.932295,271.015051 632.566562,271.487689 C631.447377,272.93497 630.232222,274.282193 629.01253,275.645807 C626.828252,278.088564 624.695623,280.608843 622.800651,283.273918 C619.33526,288.147822 616.345531,293.27717 613.519475,298.50965 C613.492604,298.540385 613.463289,298.569413 613.437814,298.600831 C612.017457,300.351707 611.123365,302.998 610.100848,305.000904 C614.147294,303.126746 618.621592,301.905879 622.774477,300.241744 C626.915846,298.582731 630.944494,296.73521 634.833898,294.565653 C640.003368,291.682359 645.365825,288.426829 650.250176,284.742714 C655.847498,281.270672 660.551077,276.491705 664.702915,271.476761 C669.615185,265.543178 674.117053,259.557687 676.901231,252.353038 C678.268891,248.812695 679.344803,245.121068 679.982742,241.386411 C680.01066,241.223515 680.046256,241.046959 680.084993,240.863573 C680.73759,239.573723 681.321087,238.254846 681.810709,236.905575 C682.588241,234.765728 684.424584,232.411761 680.980481,231.659775" id="Fill-10" fill="#F5A623"></path>
        <path d="M86.6033742,265.822266 C86.1883937,264.302929 85.9392181,262.73203 86.0544384,261.142495 C86.0837119,260.740709 86.4207078,257.822266 86.7469312,257.822266 C87.5066358,257.822266 86.4602855,265.354365 86.6033742,265.822266 M73.3819541,272.396168 C73.4279916,272.414626 74.2644552,274.022351 74.5388483,274.489154 C75.1217617,275.482145 75.7433833,276.45106 76.3819541,277.396168 C75.1838322,275.839001 74.1089353,274.336674 73.3819541,272.396168 M118.257187,224.56354 C118.968822,223.963269 118.579492,222.463631 117.73541,223.2916 C117.053949,223.96249 117.033655,223.896024 116.177022,223.853185 C115.481408,223.818394 114.741468,223.60238 114.042383,223.516441 C112.559565,223.334179 111.085024,223.257068 109.593127,223.361181 C106.395174,223.583946 103.283472,224.345708 100.322108,225.530412 C95.1542738,227.598126 89.9375732,230.277535 85.8263774,234.008715 C79.2894798,239.941321 74.0399345,248.06211 70.942385,256.159532 C69.0237735,261.174337 67.990901,266.207575 69.7348747,271.423335 C70.6061941,274.030046 71.9854047,276.510576 73.9870625,278.468985 C74.5104416,278.980721 75.2001804,279.37718 75.6899137,279.91436 C76.4429386,280.740251 76.2704372,280.475686 75.7809709,281.654158 C75.2463766,282.940898 74.7165888,284.229195 74.1902725,285.519309 C72.812664,288.897389 71.456418,292.313635 70.4561231,295.818936 C70.1266079,296.972483 69.8731963,298.143686 69.6894796,299.327611 C69.5500899,300.222824 68.7409886,303.628685 69.4451471,304.54389 C70.6166082,306.067155 71.1156875,303.728124 71.1533388,302.927937 C71.1861835,302.226928 71.2473334,301.524363 71.3349193,300.827509 C71.5554862,299.072911 71.9544292,297.350508 72.4727347,295.658223 C73.0326968,293.829371 73.7189643,292.03479 74.4009592,290.246181 C75.037292,288.578301 75.7032652,286.921325 76.3823228,285.269802 C76.7593693,284.352261 77.1409554,283.436536 77.5225414,282.520812 C77.6528521,282.207955 77.7198767,281.554459 78.0648796,281.82266 C78.8189727,279.867367 80.0467772,278.010474 81.0646961,276.174871 C82.3117268,273.926712 83.5841254,271.683227 85.0172761,269.541258 C86.0509497,267.996444 87.1396315,266.484083 88.330853,265.048834 C89.0270005,264.210221 89.7712135,263.421976 90.5618897,262.666445 C90.9963477,262.251552 92.4797001,260.471771 93.0781146,260.471771 C92.8209646,260.471771 91.6577813,262.732132 91.4764679,262.999035 C90.7520151,264.067163 89.9656114,265.084664 89.1629188,266.098269 C87.6734248,267.979308 86.2912768,269.92863 85.0410418,271.967784 C85.4017995,272.1825 86.9019747,271.1933 87.3492502,271.00247 C88.3524824,270.574855 89.3837528,270.209292 90.440391,269.927331 C92.301591,269.430395 94.5764206,268.864395 96.413855,268.864395 C95.8723179,268.864395 94.615407,269.748185 94.0517064,269.988345 C93.1483435,270.372861 92.222016,270.723625 91.282871,271.01649 C90.4158242,271.286768 89.5330226,271.492916 88.6443463,271.682708 C87.755136,271.872239 86.1484157,271.879509 85.3393144,272.353079 C85.2904479,272.381639 85.3411836,272.84015 85.149723,272.962956 C84.9569273,273.086801 84.404709,273.046298 84.3598479,273.08031 C83.6973461,273.577766 83.2340489,275.019246 82.8353729,275.728303 C81.8008982,277.566762 80.7931265,279.4195 79.7754746,281.266786 C79.4601121,281.839017 79.0406077,282.230543 79.318052,282.694506 C79.6141884,283.189106 81.0131593,283.495992 81.55977,283.676177 C83.589466,284.34577 85.646132,284.567496 87.7623458,284.215953 C91.726141,283.558044 95.1665572,281.842392 98.2683792,279.413788 C110.149084,270.111671 119.893547,258.406393 122.868263,243.544243 C124.099539,237.391209 125.426144,227.794927 118.257187,224.56354" id="Leave-the-Leaf!" fill="#FFBE54" transform="translate(96.342752, 264.048012) scale(-1, 1) rotate(-302.000000) translate(-96.342752, -264.048012) "></path>
        <g id="Background-Shape-2" opacity="0.6" transform="translate(39.000000, 358.000000)" fill="#DDE3E9">
            <path d="M661.71121,146.152379 C671.360993,211.476278 437.337348,254.084822 235.907772,224.349347 C34.4781963,194.613871 -57.9281424,78.4934855 38.190693,16.6199792 C134.309528,-45.253527 652.061428,80.8284801 661.71121,146.152379 Z" id="Background-Shape"></path>
        </g>
        <g id="Mobile3" transform="translate(138.000000, 76.000000)">
            <rect id="Container" fill="#F2F2F2" x="0" y="0" width="159" height="302" rx="8"></rect>
            <circle id="Touch" fill="#FFFFFF" cx="79" cy="268" r="15"></circle>
            <g id="Camera" transform="translate(64.000000, 16.000000)" fill="#FFFFFF">
                <circle id="Lens" cx="2" cy="2" r="2"></circle>
                <rect id="Sensor" x="9" y="0" width="21" height="4" rx="2"></rect>
            </g>
            <g id="Rows" transform="translate(14.000000, 28.000000)">
                <g id="Row">
                    <rect id="Background" fill="#FFFFFF" x="0" y="0" width="131" height="54" rx="4"></rect>
                    <g id="Text" transform="translate(39.000000, 16.200000)" fill="#DDE3E9">
                        <rect id="Name" x="0" y="0" width="73" height="8.1" rx="3"></rect>
                        <rect id="Name" x="0" y="13.5" width="49" height="8.1" rx="3"></rect>
                    </g>
                    <circle id="Avatar" fill="#C5CFD6" cx="21" cy="27" r="12"></circle>
                </g>
                <g id="Row" transform="translate(0.000000, 62.000000)">
                    <rect id="Background" fill="#FFFFFF" x="0" y="0" width="131" height="42" rx="4"></rect>
                    <g id="Text" transform="translate(39.000000, 12.600000)" fill="#DDE3E9">
                        <rect id="Name" x="0" y="0" width="73" height="6.3" rx="3"></rect>
                        <rect id="Name" x="0" y="10.5" width="49" height="6.3" rx="3"></rect>
                    </g>
                    <circle id="Avatar" fill="#C5CFD6" cx="21" cy="21" r="12"></circle>
                </g>
                <g id="Row" transform="translate(0.000000, 112.000000)">
                    <rect id="Background" fill="#FFFFFF" x="0" y="0" width="131" height="42" rx="4"></rect>
                    <g id="Text" transform="translate(39.000000, 12.600000)" fill="#DDE3E9">
                        <rect id="Name" x="0" y="0" width="73" height="6.3" rx="3"></rect>
                        <rect id="Name" x="0" y="10.5" width="49" height="6.3" rx="3"></rect>
                    </g>
                    <circle id="Avatar" fill="#AFB9C5" cx="21" cy="21" r="12"></circle>
                </g>
                <g id="Row" transform="translate(0.000000, 162.000000)">
                    <rect id="Background" fill="#FFFFFF" x="0" y="0" width="131" height="42" rx="4"></rect>
                    <g id="Text" transform="translate(39.000000, 12.600000)" fill="#DDE3E9">
                        <rect id="Name" x="0" y="0" width="73" height="6.3" rx="3"></rect>
                        <rect id="Name" x="0" y="10.5" width="49" height="6.3" rx="3"></rect>
                    </g>
                    <circle id="Avatar" fill="#C5CFD6" cx="21" cy="21" r="12"></circle>
                </g>
            </g>
        </g>
        <g id="Mobile3" transform="translate(156.000000, 102.000000)">
            <g id="Group" transform="translate(0.000000, 218.000000)">
                <path d="M12.139863,0 C10.8150371,0 9.4942504,0.0266022626 8.17108772,0.095441451 C7.1624999,0.14817927 5.62122565,-0.0609051802 4.76778691,0.567748289 C3.88108497,1.22067049 3.94214671,2.55731751 4.08066419,3.50123112 C4.81292983,8.49288902 6.60011418,12.9191321 10.3388981,16.4555996 C16.0955705,21.9011294 22.6949899,24.6679981 30.5042395,25.9001029 C35.9898168,26.7656098 41.0539017,25.563841 45.0920545,21.6628758 C48.0425006,27.1389749 50.2808765,33.1989237 51.4039848,39.3151105 C51.9580547,42.3330672 52.1272219,45.3146208 52.0298082,48.3876489 C51.9670833,50.3559829 51.8585027,52.31965 51.647519,54.2786499 C51.5560451,55.1299223 51.1219604,56.4184986 51.4553052,57.222867 C51.8463854,58.1674807 53.1652714,58.2589551 53.7573564,57.4534199 C54.250127,56.7829963 54.1596035,55.4664176 54.2608187,54.6730168 C54.4285603,53.355038 54.583947,52.0361258 54.6951411,50.7120799 C54.8757128,48.5689643 55.0092408,46.4197815 55,44.2684985 C54.9769279,39.4350541 53.9022889,34.582708 52.4322929,29.9945178 C49.6122862,21.1922025 45.0366951,13.3692704 37.9205081,7.23138172 C33.5449714,3.45712737 28.5371962,1.92866404 22.8556037,1.10819426 C19.3182997,0.597384143 15.7232603,0 12.139863,0" id="Fill-16" fill="#FFB741"></path>
                <path d="M32.5712675,35 C18.2723696,35 8.64204555,46.5241625 4.08868149,58.5015953 C2.37224237,63.0163306 1.96994464,67.9738742 1.30842479,72.7144486 C1.09603594,74.2357354 1.17471582,76.5539408 0.557219238,77.9092029 C0.333122071,78.4006816 -0.180638832,78.5773956 0.0650016363,79.2469528 C0.213697249,79.6524625 0.505468481,79.9008173 0.943593663,79.9813279 C1.84302649,80.1468978 3.11478377,79.1673519 3.88589345,78.780719 C10.2819123,75.5730304 14.484261,70.6132124 17.9124559,64.5448952 C20.0375153,60.7836392 22.1937187,56.8791017 23.4561093,52.7498622 C24.227219,50.2274235 24.6761159,47.5708006 24.9397871,44.953978 C25.0435228,43.9234876 25.1439802,42.8684346 25.1378918,41.8315761 C25.1318035,40.8029052 24.6531676,40.2591173 24.3091772,39.363721 C29.080316,37.5576904 34.465673,37.0655295 39.2986316,38.9370602 C43.7686325,40.6680385 47.4818078,44.0130955 49.5609705,48.2155678 C50.1011922,49.3079195 50.5177741,50.460313 50.8212537,51.6356771 C51.0198267,52.4055314 51.0294275,53.4044089 51.397537,54.1003482 C52.290179,55.7876597 54.1681928,54.6596013 53.9878848,53.088962 C53.4851297,48.7075013 50.9786134,44.3087559 47.774984,41.2625435 C43.7344442,37.4207769 38.2575282,35 32.5712675,35" id="Fill-18" fill="#FFD58F"></path>
            </g>
            <rect id="Container" fill="#DDE3E9" x="48" y="0" width="159" height="302" rx="8"></rect>
            <circle id="Touch" fill="#FFFFFF" cx="127" cy="268" r="15"></circle>
            <g id="Camera" transform="translate(112.000000, 16.000000)" fill="#FFFFFF">
                <circle id="Lens" cx="2" cy="2" r="2"></circle>
                <rect id="Sensor" x="9" y="0" width="21" height="4" rx="2"></rect>
            </g>
            <g id="Rows" transform="translate(62.000000, 28.000000)">
                <g id="Row">
                    <rect id="Container" fill="#FFFFFF" x="0" y="0" width="131" height="54" rx="4"></rect>
                    <g id="Text-Stuff" transform="translate(9.000000, 16.200000)" fill="#DDE3E9">
                        <rect id="Label" x="0" y="0" width="73" height="8.1" rx="3"></rect>
                        <rect id="Label" x="0" y="13.5" width="49" height="8.1" rx="3"></rect>
                    </g>
                    <g id="Check" transform="translate(110.000000, 20.000000)">
                        <circle id="Background" fill="#DDE3E9" cx="7" cy="7" r="7"></circle>
                        <circle id="Indicator" fill="#F2F2F2" cx="7" cy="7" r="3"></circle>
                    </g>
                </g>
                <g id="Row" transform="translate(0.000000, 62.000000)">
                    <rect id="Background" fill="#FFFFFF" x="0" y="0" width="131" height="42" rx="4"></rect>
                    <g id="Text" transform="translate(39.000000, 12.600000)" fill="#DDE3E9">
                        <rect id="Name" x="0" y="0" width="73" height="6.3" rx="3"></rect>
                        <rect id="Name" x="0" y="10.5" width="49" height="6.3" rx="3"></rect>
                    </g>
                    <circle id="Avatar" fill="#C5CFD6" cx="21" cy="21" r="12"></circle>
                </g>
                <g id="Row" transform="translate(0.000000, 112.000000)">
                    <rect id="Container" fill="#FFFFFF" x="0" y="0" width="131" height="42" rx="4"></rect>
                    <g id="Text-Stuff" transform="translate(9.000000, 12.600000)">
                        <rect id="Label" fill="#DDE3E9" x="0" y="0" width="73" height="6.3" rx="3"></rect>
                        <rect id="Label" fill="#AFB9C5" x="0" y="10.5" width="49" height="6.3" rx="3"></rect>
                    </g>
                    <g id="Check" transform="translate(110.000000, 14.000000)">
                        <circle id="Background" fill="#DDE3E9" cx="7" cy="7" r="7"></circle>
                        <circle id="Indicator" fill="#F2F2F2" cx="7" cy="7" r="3"></circle>
                    </g>
                </g>
                <g id="Row" transform="translate(0.000000, 162.000000)">
                    <rect id="Background" fill="#FFFFFF" x="0" y="0" width="131" height="42" rx="4"></rect>
                    <g id="Text" transform="translate(39.000000, 12.600000)" fill="#DDE3E9">
                        <rect id="Name" x="0" y="0" width="73" height="6.3" rx="3"></rect>
                        <rect id="Name" x="0" y="10.5" width="49" height="6.3" rx="3"></rect>
                    </g>
                    <circle id="Avatar" fill="#C5CFD6" cx="21" cy="21" r="12"></circle>
                </g>
            </g>
        </g>
        <g id="Web" transform="translate(270.000000, 127.000000)">
            <rect id="Container" fill="#F2F2F2" x="0" y="0" width="335" height="346" rx="8"></rect>
            <rect id="Background" fill="#FFFFFF" x="249" y="43" width="70" height="81" rx="8"></rect>
            <g id="Profile-Info" transform="translate(259.000000, 58.000000)" fill="#DDE3E9">
                <circle id="Avatar" cx="25" cy="16" r="16"></circle>
                <rect id="Name" x="0" y="36" width="50" height="6" rx="3"></rect>
                <rect id="Name" x="8" y="46" width="34" height="6" rx="3"></rect>
            </g>
            <path d="M8,0 L327,0 C331.418278,-8.11624501e-16 335,3.581722 335,8 L335,27 L335,27 L0,27 L0,8 C-5.41083001e-16,3.581722 3.581722,8.11624501e-16 8,0 Z" id="Header" fill="#C5CFD6"></path>
            <g id="Buttons" transform="translate(9.000000, 10.000000)" fill="#F2F2F2">
                <circle id="buttons" cx="4" cy="4" r="4"></circle>
                <circle id="buttons" cx="16" cy="4" r="4"></circle>
                <circle id="buttons" cx="28" cy="4" r="4"></circle>
            </g>
            <g id="Components" transform="translate(249.000000, 132.000000)">
                <rect id="Background" fill="#FFFFFF" x="0" y="0" width="70" height="194" rx="8"></rect>
                <g id="Rows" transform="translate(18.000000, 18.000000)">
                    <rect id="Data" fill="#DDE3E9" x="0" y="0" width="34" height="26" rx="4"></rect>
                    <rect id="Data" fill="#AFB9C5" x="0" y="34" width="34" height="25" rx="4"></rect>
                    <rect id="Data" fill="#DDE3E9" x="0" y="67" width="34" height="25" rx="4"></rect>
                    <rect id="Data" fill="#DDE3E9" x="0" y="133" width="34" height="25" rx="4"></rect>
                    <rect id="Data" fill="#C5CFD6" x="0" y="100" width="34" height="25" rx="4"></rect>
                </g>
            </g>
            <g id="Rows" transform="translate(16.000000, 44.000000)">
                <g id="Row">
                    <rect id="Container" fill="#FFFFFF" x="0" y="0" width="225" height="47" rx="4"></rect>
                    <g id="Text-Stuff" transform="translate(36.000000, 13.100000)" fill="#DDE3E9">
                        <rect id="Label" x="0" y="0.9" width="140" height="7" rx="3"></rect>
                        <rect id="Label" x="0" y="12.9" width="94" height="7" rx="3"></rect>
                    </g>
                    <g id="Checkmark!" transform="translate(7.000000, 13.000000)" fill="#F5A623">
                        <path d="M10.8168921,4.47028236 C14.8194704,5.0371069 18.9829939,6.87285853 18.9479716,11.4164734 C18.9186552,15.2366865 15.6332473,19.3025109 11.4146325,19.0741692 C7.6180563,18.8690455 4.04322247,14.8201069 3.56786342,11.3502735 C3.3215267,9.55251481 3.7823259,7.61698363 4.86664035,6.13813573 C6.28740512,4.20049384 8.54181902,4.20356398 10.8168921,4.47028236 M8.92627745,2.00073877 C6.03142742,2.01608946 3.91336445,3.03748655 2.12171731,5.19310837 C1.47911688,5.96601603 0.73184301,6.79802388 0.242711143,7.67378122 C-0.214152975,8.49158967 -0.134073864,10.5714174 1.43366657,9.59645618 C1.0476341,13.6229444 3.46063218,17.5310403 6.92941529,19.5941741 C10.7000199,21.837103 14.9619207,21.3998 18.0999594,18.2561689 C20.9725762,15.3784886 21.9835012,10.5178819 19.8819656,6.95901433 C17.7816105,3.40187376 12.9150829,1.9625539 8.92627745,2.00073877" id="Fill-292"></path>
                        <path d="M17.23177,0.285440183 C15.3572851,1.66243421 13.6457729,3.4756226 12.224189,5.31473933 C10.8346424,7.11237072 9.91610501,9.35696671 8.24697765,10.9244343 C7.4040564,10.0041778 6.41646948,7.51884723 4.73500475,8.50492174 C3.3396875,9.32306043 4.23812694,10.7301712 4.91767748,11.6540177 C6.67256949,14.039624 8.62127767,14.9997701 10.8718535,12.6426851 C12.9158779,10.5022013 14.076586,7.64669386 15.9876851,5.38295079 C16.8260296,4.38969612 18.1210559,3.40382106 18.7886671,2.30725195 C19.3937954,1.31319948 18.6453943,-0.75588163 17.23177,0.285440183" id="Fill-294"></path>
                    </g>
                    <g id="Check" transform="translate(193.954198, 16.500000)">
                        <circle id="Background" fill="#DDE3E9" cx="7" cy="7" r="7"></circle>
                        <circle id="Indicator" fill="#F2F2F2" cx="7" cy="7" r="3"></circle>
                    </g>
                </g>
                <g id="Row" transform="translate(0.000000, 55.000000)">
                    <rect id="Container" fill="#FFFFFF" x="0" y="0" width="225" height="39" rx="4"></rect>
                    <g id="Text-Stuff" transform="translate(36.000000, 11.700000)" fill="#DDE3E9">
                        <rect id="Label" x="0" y="0.3" width="140" height="6" rx="3"></rect>
                        <rect id="Label" x="0" y="9.3" width="94" height="6" rx="3"></rect>
                    </g>
                    <g id="Check" transform="translate(193.954198, 12.500000)">
                        <circle id="Background" fill="#DDE3E9" cx="7" cy="7" r="7"></circle>
                        <circle id="Indicator" fill="#F2F2F2" cx="7" cy="7" r="3"></circle>
                    </g>
                </g>
                <g id="Checkmark!" transform="translate(7.000000, 63.000000)" fill="#F5A623">
                    <path d="M10.8168921,4.47028236 C14.8194704,5.0371069 18.9829939,6.87285853 18.9479716,11.4164734 C18.9186552,15.2366865 15.6332473,19.3025109 11.4146325,19.0741692 C7.6180563,18.8690455 4.04322247,14.8201069 3.56786342,11.3502735 C3.3215267,9.55251481 3.7823259,7.61698363 4.86664035,6.13813573 C6.28740512,4.20049384 8.54181902,4.20356398 10.8168921,4.47028236 M8.92627745,2.00073877 C6.03142742,2.01608946 3.91336445,3.03748655 2.12171731,5.19310837 C1.47911688,5.96601603 0.73184301,6.79802388 0.242711143,7.67378122 C-0.214152975,8.49158967 -0.134073864,10.5714174 1.43366657,9.59645618 C1.0476341,13.6229444 3.46063218,17.5310403 6.92941529,19.5941741 C10.7000199,21.837103 14.9619207,21.3998 18.0999594,18.2561689 C20.9725762,15.3784886 21.9835012,10.5178819 19.8819656,6.95901433 C17.7816105,3.40187376 12.9150829,1.9625539 8.92627745,2.00073877" id="Fill-292"></path>
                    <path d="M17.23177,0.285440183 C15.3572851,1.66243421 13.6457729,3.4756226 12.224189,5.31473933 C10.8346424,7.11237072 9.91610501,9.35696671 8.24697765,10.9244343 C7.4040564,10.0041778 6.41646948,7.51884723 4.73500475,8.50492174 C3.3396875,9.32306043 4.23812694,10.7301712 4.91767748,11.6540177 C6.67256949,14.039624 8.62127767,14.9997701 10.8718535,12.6426851 C12.9158779,10.5022013 14.076586,7.64669386 15.9876851,5.38295079 C16.8260296,4.38969612 18.1210559,3.40382106 18.7886671,2.30725195 C19.3937954,1.31319948 18.6453943,-0.75588163 17.23177,0.285440183" id="Fill-294"></path>
                </g>
                <g id="Row" transform="translate(0.000000, 102.000000)">
                    <rect id="Container" fill="#FFFFFF" x="0" y="0" width="225" height="39" rx="4"></rect>
                    <g id="Text-Stuff" transform="translate(37.000000, 11.700000)" fill="#DDE3E9">
                        <rect id="Label" x="0" y="0.3" width="139" height="6" rx="3"></rect>
                        <rect id="Label" x="0" y="9.3" width="93" height="6" rx="3"></rect>
                    </g>
                    <g id="Check" transform="translate(193.954198, 12.500000)">
                        <circle id="Background" fill="#DDE3E9" cx="7" cy="7" r="7"></circle>
                        <circle id="Indicator" fill="#AFB9C5" cx="7" cy="7" r="3"></circle>
                    </g>
                </g>
                <g id="Checkmark!-Copy" transform="translate(7.000000, 110.000000)" fill="#F5A623">
                    <path d="M10.8168921,4.47028236 C14.8194704,5.0371069 18.9829939,6.87285853 18.9479716,11.4164734 C18.9186552,15.2366865 15.6332473,19.3025109 11.4146325,19.0741692 C7.6180563,18.8690455 4.04322247,14.8201069 3.56786342,11.3502735 C3.3215267,9.55251481 3.7823259,7.61698363 4.86664035,6.13813573 C6.28740512,4.20049384 8.54181902,4.20356398 10.8168921,4.47028236 M8.92627745,2.00073877 C6.03142742,2.01608946 3.91336445,3.03748655 2.12171731,5.19310837 C1.47911688,5.96601603 0.73184301,6.79802388 0.242711143,7.67378122 C-0.214152975,8.49158967 -0.134073864,10.5714174 1.43366657,9.59645618 C1.0476341,13.6229444 3.46063218,17.5310403 6.92941529,19.5941741 C10.7000199,21.837103 14.9619207,21.3998 18.0999594,18.2561689 C20.9725762,15.3784886 21.9835012,10.5178819 19.8819656,6.95901433 C17.7816105,3.40187376 12.9150829,1.9625539 8.92627745,2.00073877" id="Fill-292"></path>
                    <path d="M17.23177,0.285440183 C15.3572851,1.66243421 13.6457729,3.4756226 12.224189,5.31473933 C10.8346424,7.11237072 9.91610501,9.35696671 8.24697765,10.9244343 C7.4040564,10.0041778 6.41646948,7.51884723 4.73500475,8.50492174 C3.3396875,9.32306043 4.23812694,10.7301712 4.91767748,11.6540177 C6.67256949,14.039624 8.62127767,14.9997701 10.8718535,12.6426851 C12.9158779,10.5022013 14.076586,7.64669386 15.9876851,5.38295079 C16.8260296,4.38969612 18.1210559,3.40382106 18.7886671,2.30725195 C19.3937954,1.31319948 18.6453943,-0.75588163 17.23177,0.285440183" id="Fill-294"></path>
                </g>
                <g id="Row" transform="translate(0.000000, 243.000000)">
                    <rect id="Container" fill="#FFFFFF" x="0" y="0" width="225" height="39" rx="4"></rect>
                    <g id="Text-Stuff" transform="translate(41.000000, 11.700000)" fill="#DDE3E9">
                        <rect id="Label" x="0" y="0.3" width="135" height="6" rx="3"></rect>
                        <rect id="Label" x="0" y="9.3" width="91" height="6" rx="3"></rect>
                    </g>
                    <g id="Checkmark!-Copy" transform="translate(7.000000, 9.000000)" fill="#F5A623">
                        <path d="M10.8168921,4.47028236 C14.8194704,5.0371069 18.9829939,6.87285853 18.9479716,11.4164734 C18.9186552,15.2366865 15.6332473,19.3025109 11.4146325,19.0741692 C7.6180563,18.8690455 4.04322247,14.8201069 3.56786342,11.3502735 C3.3215267,9.55251481 3.7823259,7.61698363 4.86664035,6.13813573 C6.28740512,4.20049384 8.54181902,4.20356398 10.8168921,4.47028236 M8.92627745,2.00073877 C6.03142742,2.01608946 3.91336445,3.03748655 2.12171731,5.19310837 C1.47911688,5.96601603 0.73184301,6.79802388 0.242711143,7.67378122 C-0.214152975,8.49158967 -0.134073864,10.5714174 1.43366657,9.59645618 C1.0476341,13.6229444 3.46063218,17.5310403 6.92941529,19.5941741 C10.7000199,21.837103 14.9619207,21.3998 18.0999594,18.2561689 C20.9725762,15.3784886 21.9835012,10.5178819 19.8819656,6.95901433 C17.7816105,3.40187376 12.9150829,1.9625539 8.92627745,2.00073877" id="Fill-292"></path>
                        <path d="M17.23177,0.285440183 C15.3572851,1.66243421 13.6457729,3.4756226 12.224189,5.31473933 C10.8346424,7.11237072 9.91610501,9.35696671 8.24697765,10.9244343 C7.4040564,10.0041778 6.41646948,7.51884723 4.73500475,8.50492174 C3.3396875,9.32306043 4.23812694,10.7301712 4.91767748,11.6540177 C6.67256949,14.039624 8.62127767,14.9997701 10.8718535,12.6426851 C12.9158779,10.5022013 14.076586,7.64669386 15.9876851,5.38295079 C16.8260296,4.38969612 18.1210559,3.40382106 18.7886671,2.30725195 C19.3937954,1.31319948 18.6453943,-0.75588163 17.23177,0.285440183" id="Fill-294"></path>
                    </g>
                    <g id="Check" transform="translate(193.954198, 12.500000)">
                        <circle id="Background" fill="#DDE3E9" cx="7" cy="7" r="7"></circle>
                        <circle id="Indicator" fill="#F2F2F2" cx="7" cy="7" r="3"></circle>
                    </g>
                </g>
                <g id="Row" transform="translate(0.000000, 196.000000)">
                    <rect id="Container" fill="#FFFFFF" x="0" y="0" width="225" height="39" rx="4"></rect>
                    <g id="Text-Stuff" transform="translate(40.000000, 11.700000)" fill="#DDE3E9">
                        <rect id="Label" x="0" y="0.3" width="136" height="6" rx="3"></rect>
                        <rect id="Label" x="0" y="9.3" width="91" height="6" rx="3"></rect>
                    </g>
                    <g id="Checkmark!-Copy" transform="translate(7.000000, 9.000000)" fill="#F5A623">
                        <path d="M10.8168921,4.47028236 C14.8194704,5.0371069 18.9829939,6.87285853 18.9479716,11.4164734 C18.9186552,15.2366865 15.6332473,19.3025109 11.4146325,19.0741692 C7.6180563,18.8690455 4.04322247,14.8201069 3.56786342,11.3502735 C3.3215267,9.55251481 3.7823259,7.61698363 4.86664035,6.13813573 C6.28740512,4.20049384 8.54181902,4.20356398 10.8168921,4.47028236 M8.92627745,2.00073877 C6.03142742,2.01608946 3.91336445,3.03748655 2.12171731,5.19310837 C1.47911688,5.96601603 0.73184301,6.79802388 0.242711143,7.67378122 C-0.214152975,8.49158967 -0.134073864,10.5714174 1.43366657,9.59645618 C1.0476341,13.6229444 3.46063218,17.5310403 6.92941529,19.5941741 C10.7000199,21.837103 14.9619207,21.3998 18.0999594,18.2561689 C20.9725762,15.3784886 21.9835012,10.5178819 19.8819656,6.95901433 C17.7816105,3.40187376 12.9150829,1.9625539 8.92627745,2.00073877" id="Fill-292"></path>
                        <path d="M17.23177,0.285440183 C15.3572851,1.66243421 13.6457729,3.4756226 12.224189,5.31473933 C10.8346424,7.11237072 9.91610501,9.35696671 8.24697765,10.9244343 C7.4040564,10.0041778 6.41646948,7.51884723 4.73500475,8.50492174 C3.3396875,9.32306043 4.23812694,10.7301712 4.91767748,11.6540177 C6.67256949,14.039624 8.62127767,14.9997701 10.8718535,12.6426851 C12.9158779,10.5022013 14.076586,7.64669386 15.9876851,5.38295079 C16.8260296,4.38969612 18.1210559,3.40382106 18.7886671,2.30725195 C19.3937954,1.31319948 18.6453943,-0.75588163 17.23177,0.285440183" id="Fill-294"></path>
                    </g>
                    <g id="Check" transform="translate(193.954198, 12.500000)">
                        <circle id="Background" fill="#DDE3E9" cx="7" cy="7" r="7"></circle>
                        <circle id="Indicator" fill="#F2F2F2" cx="7" cy="7" r="3"></circle>
                    </g>
                </g>
                <g id="Row" transform="translate(0.000000, 149.000000)">
                    <rect id="Container" fill="#FFFFFF" x="0" y="0" width="225" height="39" rx="4"></rect>
                    <g id="Text-Stuff" transform="translate(39.000000, 11.700000)" fill="#DDE3E9">
                        <rect id="Label" x="0" y="0.3" width="137" height="6" rx="3"></rect>
                        <rect id="Label" x="0" y="9.3" width="92" height="6" rx="3"></rect>
                    </g>
                    <g id="Checkmark!-Copy" transform="translate(7.000000, 8.000000)" fill="#F5A623">
                        <path d="M10.8168921,4.47028236 C14.8194704,5.0371069 18.9829939,6.87285853 18.9479716,11.4164734 C18.9186552,15.2366865 15.6332473,19.3025109 11.4146325,19.0741692 C7.6180563,18.8690455 4.04322247,14.8201069 3.56786342,11.3502735 C3.3215267,9.55251481 3.7823259,7.61698363 4.86664035,6.13813573 C6.28740512,4.20049384 8.54181902,4.20356398 10.8168921,4.47028236 M8.92627745,2.00073877 C6.03142742,2.01608946 3.91336445,3.03748655 2.12171731,5.19310837 C1.47911688,5.96601603 0.73184301,6.79802388 0.242711143,7.67378122 C-0.214152975,8.49158967 -0.134073864,10.5714174 1.43366657,9.59645618 C1.0476341,13.6229444 3.46063218,17.5310403 6.92941529,19.5941741 C10.7000199,21.837103 14.9619207,21.3998 18.0999594,18.2561689 C20.9725762,15.3784886 21.9835012,10.5178819 19.8819656,6.95901433 C17.7816105,3.40187376 12.9150829,1.9625539 8.92627745,2.00073877" id="Fill-292"></path>
                        <path d="M17.23177,0.285440183 C15.3572851,1.66243421 13.6457729,3.4756226 12.224189,5.31473933 C10.8346424,7.11237072 9.91610501,9.35696671 8.24697765,10.9244343 C7.4040564,10.0041778 6.41646948,7.51884723 4.73500475,8.50492174 C3.3396875,9.32306043 4.23812694,10.7301712 4.91767748,11.6540177 C6.67256949,14.039624 8.62127767,14.9997701 10.8718535,12.6426851 C12.9158779,10.5022013 14.076586,7.64669386 15.9876851,5.38295079 C16.8260296,4.38969612 18.1210559,3.40382106 18.7886671,2.30725195 C19.3937954,1.31319948 18.6453943,-0.75588163 17.23177,0.285440183" id="Fill-294"></path>
                    </g>
                    <g id="Check" transform="translate(193.954198, 12.500000)">
                        <circle id="Background" fill="#DDE3E9" cx="7" cy="7" r="7"></circle>
                        <circle id="Indicator" fill="#F2F2F2" cx="7" cy="7" r="3"></circle>
                    </g>
                </g>
            </g>
        </g>
        <path d="M674.075943,294 C655.640081,294 638.311227,300.840049 623.341136,311.031869 C615.13827,316.616354 607.800186,323.727973 601.321713,331.132413 C597.582329,335.406588 594.248011,340.030491 591.887402,345.173043 C590.294462,348.644032 589.201116,352.260531 588.460033,355.990844 C587.55685,360.53695 586.839399,365.17526 586.51483,369.797002 C586.387069,371.616957 585.32954,381.27428 588.355536,381.437799 C588.338181,381.675873 588.334119,381.902782 588.352582,382.10628 C581.782166,392.379859 577.722643,404.420088 573.958149,415.835416 C570.682911,425.768992 567.764367,435.786488 565.869751,446.062949 C563.375474,459.592494 561.737117,473.325536 560.958001,487.049575 C560.790732,489.999033 560.675895,492.949932 560.576936,495.903351 C560.493117,498.422403 560.40819,500.941454 560.325478,503.460505 C560.233166,506.283542 559.736156,509.533745 560.185163,512.340214 C560.575829,514.784349 562.691256,514.414451 562.784676,511.982202 C562.897666,509.04499 562.879204,506.102015 563.007702,503.162642 C563.178665,499.261606 563.354796,495.360571 563.545698,491.460615 C564.874625,464.36875 569.860224,437.675236 579.06117,412.084213 C582.784677,401.728154 587.051348,391.9246 592.535065,382.344715 C597.356348,373.921705 603.155772,365.767384 609.083695,358.172773 C614.845456,350.792465 620.835782,343.582879 627.895453,337.329912 C633.62435,332.255793 639.925953,327.835387 646.403688,323.72221 C654.631293,318.498258 662.843021,313.401088 671.755213,309.39092 C676.387811,307.306598 681.10792,305.44054 685.776704,303.440499 C686.616746,303.080686 687.517344,302.731678 688.325261,302.314958 C691.020409,300.925049 690.133103,298.831723 687.985552,297.375543 C684.041234,294.700897 678.796053,294 674.075943,294 Z" id="Fill-1" fill="#FFD083"></path>
        <path d="M607.161789,395.943116 C601.214766,398.507723 595.795086,401.902835 590.533123,405.599146 C583.131565,410.797709 577.301613,416.848195 573.220786,424.86497 C570.782781,429.65423 568.994401,436.431196 570.631665,441.654916 C572.560392,447.807388 577.856053,452.93864 584.830664,451.85453 C589.14355,451.184822 593.097231,448.329896 596.375233,445.642906 C600.296606,442.428309 603.435651,438.563042 606.027551,434.270114 C610.255673,427.267419 612.740228,419.35093 616.331926,412.033439 C618.036237,408.560477 619.683227,405.062699 621.724509,401.762094 C622.735076,400.1276 623.810953,398.508743 625.343998,397.29409 C626.164194,396.64444 629.622492,395.519875 628.299967,394.060796 C647.690409,394.315421 664.868304,409.207408 668.590622,427.640687 C668.93732,429.358811 669.208287,431.090872 669.494539,432.819534 C669.675183,433.911123 669.60223,437.936508 670.578058,438.633752 C672.730158,440.17204 671.825546,435.499044 671.73314,434.826277 C671.494481,433.087417 671.239842,431.349916 670.972696,429.615475 C669.519203,420.181436 665.319221,411.411324 658.31508,404.683312 C650.305584,396.989832 639.498879,392 628.1822,392 C620.704911,392 614.05129,392.971586 607.161789,395.943116 Z" id="Fill-20" fill="#F5A623" transform="translate(621.000000, 422.000000) scale(-1, 1) translate(-621.000000, -422.000000) "></path>
        <g id="Plant" transform="translate(16.000000, 333.000000)">
            <path d="M9.93785602,35.7363701 C28.6043474,67.0518486 50.3448762,97.3738414 63.400835,131.612719 C62.8747124,127.576998 62.316848,123.545457 61.6924335,119.519653 C58.3796628,98.1788894 54.2624276,76.9938487 49.9359142,55.8347788 C47.7325965,45.061608 45.4023236,34.3274793 43.0122847,23.5942683 C41.7268475,17.8294571 40.457171,12.0611334 39.145247,6.30181171 C38.8274703,4.90590411 38.5544351,2.4694293 38.1565942,0 C50.8449133,41.636678 63.0807311,83.3047517 72.0307975,125.94239 C73.204927,131.538126 74.2047864,137.123918 75.0238081,142.699993 C75.3039851,141.427955 75.5795646,140.155702 75.8811982,138.88715 C79.5025613,123.679846 84.9347228,108.59358 91.4026624,94.3744557 C94.494721,87.5745292 98.0463864,80.9235176 102.228151,74.7261293 C104.835821,70.8630236 110.985519,66.2708832 113.364361,62.3144999 C100.354578,86.1759773 95.6569872,116.031633 88.1451337,141.973334 C86.3116359,148.30385 84.4667482,154.62409 82.659084,160.955464 C93.9872772,138.237255 111.563216,119.571486 136,111.482566 C106.420215,131.026943 88.6779699,165.254031 76.7221336,200.259757 C76.682738,200.674905 76.6358989,201.090058 76.5954089,201.505863 C80.1135643,194.828835 84.5452103,188.789483 90.5514934,184.559607 C103.406592,175.504479 117.667098,178.142392 130.137007,185.909854 C120.350227,179.688703 102.662664,185.353659 94.4280037,191.676694 C88.5328799,196.203004 83.4948291,202.275393 79.119821,208.199601 C78.071517,209.619676 76.6413193,211.276578 75.1303997,213.044484 C73.0120284,226.795282 69.5599117,240.451838 64.6724606,254 C65.4790179,250.11126 64.8958605,243.891877 65.11953,240.993318 C65.1438759,240.679499 65.1636243,240.365464 65.1877517,240.052521 C64.4448288,243.018848 63.7270637,245.951459 63.0359813,248.836783 C64.4097546,243.330925 65.1563919,237.583268 65.7392402,231.776207 C65.8893549,229.280566 66.0357479,226.784927 66.1904602,224.289502 C66.141426,219.553405 65.9463583,214.798592 65.6164284,210.036217 C64.4465561,205.407706 63.1367171,201.041891 62.0564998,197.41118 C58.158506,184.310429 52.4441742,171.759576 45.4108456,160.050843 C38.9937018,149.366014 31.3123836,139.687606 22.4447835,130.934599 C17.6643455,126.217405 12.6613846,121.724669 7.7288832,117.169517 C5.94526254,115.52278 2.75721952,111.473853 0,109.363232 C20.0804874,120.433766 40.7488532,132.410494 55.3976085,150.247606 C53.6802099,143.652644 51.8148695,137.151008 49.841671,130.779652 C39.8311473,98.4544622 27.1913357,64.9525261 9.93785602,35.7363701 Z" id="Fill-19" fill="#DDE3E9"></path>
            <path d="M30,213 C30,248.898509 32.8428117,278 71,278 C109.157188,278 112,248.898509 112,213" id="Base" fill="#C5CFD6"></path>
        </g>
        <g id="Group-2" transform="translate(390.000000, 221.000000)">
            <g id="Head/Front/Airy" transform="translate(131.500000, 48.000000) scale(-1, 1) translate(-131.500000, -48.000000) translate(69.000000, 0.000000)">
                <g id="Head" stroke-width="1" transform="translate(49.632353, 28.615385)" fill="#B28B67">
                    <path d="M35.0582182,8.4313227 C40.384331,18.401589 39.7514503,43.6919962 32.8679241,45.4739608 C30.1226752,46.1846339 24.2743569,44.4436731 18.3222494,40.8404724 L22.0588235,67.3846154 L0,67.3846154 L7.59395845,31.8369891 C3.35877124,26.8443053 0.492313023,20.7257094 0.971301778,13.8696497 C2.35140645,-5.88463438 29.7321054,-1.53894356 35.0582182,8.4313227 Z"></path>
                </g>
                <path d="M72.1176011,25.5556216 C69.210312,25.0768041 61.382308,24.7476038 59.9386842,24.7478164 C59.0161405,24.7478164 58.0163841,24.9594907 57.4699884,24.1087555 C57.0225347,23.4121005 57.1864534,22.2338652 57.0529134,21.4254224 C56.8978552,20.486277 56.6776092,19.5592456 56.4548317,18.6345519 C55.8208861,16.0032872 54.8622676,13.4999623 53.5209612,11.1496549 C51.0041657,6.74019857 47.3171552,3.28625196 42.6624548,1.27640867 C37.5223272,-0.942771154 31.7058503,-1.450917 26.1769168,-1.00079032 C20.2602323,-0.519210017 14.904289,1.44239023 9.31797337,3.2883772 C3.99451841,5.04744169 -1.58124899,5.7398462 -7.14899977,4.88082256 C-12.7587323,4.01542319 -16.9974125,0.961872554 -21.7291147,-1.93632274 C-26.5730494,-4.90337595 -32.1087337,-6.84393628 -37.8351291,-6.39784755 C-43.1805243,-5.98129972 -48.1071568,-3.76467019 -52.5272657,-0.80356767 C-56.6627847,1.96690046 -60.0751206,5.30013321 -62.00164,9.9913969 C-64.0741462,15.0377889 -64.0722476,20.5770249 -60.6641309,25.0368496 C-55.7242078,31.5014169 -46.55341,33.1731338 -38.9237012,33.0069397 C-34.5105541,32.9110912 -30.1763073,32.1020108 -26.0097767,30.6302793 C-20.4532069,28.6674039 -15.6514649,25.3405469 -10.4531114,22.6412745 C-8.01352852,21.374629 -5.49188086,20.3343221 -2.84871817,19.584961 C-0.283822977,18.85749 2.24246588,18.5238267 4.56475297,20.0799304 C7.02142385,21.7261444 9.2228288,23.3432426 12.0332856,24.3737734 C14.7294001,25.3624369 17.5852141,25.9154254 20.4576942,25.8931104 C26.0465414,25.8497554 31.5558552,24.1008921 36.9839481,22.9294576 C41.4103859,21.9743729 46.1465183,21.0224761 50.6592402,21.9405815 C52.5423011,22.323763 55.2928443,23.1147788 55.9729909,25.0802045 C44.5258961,27.1637938 40.0300618,41.3816764 43.2571716,51.8189624 C44.9988869,57.4523468 55.4685769,64.0377135 59.5393302,61.0761583 C62.1182695,59.1999279 60.5525882,56.7367771 59.5393302,55.1107529 C57.5988872,51.9968453 56.9349848,47.9969235 60.5255849,45.8289621 C63.6227412,43.9591724 66.8791877,48.3994267 66.9407891,48.3945387 C67.7920271,48.3271684 75.1474635,44.1494268 80.2152253,38.0530422 C85.2145911,38.3506759 85.9730672,35.0400226 84.7793166,32.3325305 C83.5855659,29.6250383 76.1345586,26.2176351 72.1176011,25.5556216 Z" id="hair" fill="#191847"></path>
            </g>
            <g id="Bottom/Standing/Shorts" transform="translate(138.500000, 286.000000) scale(-1, 1) translate(-138.500000, -286.000000) translate(0.000000, 175.000000)">
                <polygon id="Leg" fill="#997659" points="118.186667 9.24002855e-14 152.932473 114.273498 169.764209 211.455747 182.961452 211.455747 165.175999 9.24002855e-14"></polygon>
                <path d="M105.756502,0 C108.116521,62.7422922 105.339097,95.1059027 104.810896,100.806313 C104.282696,106.506723 97.0499012,143.468487 79.927138,213.369373 L93.9897863,208.510666 C121.050717,144.401208 130.272117,111.082391 133.375801,102.664053 C136.479485,94.2457156 144.722716,60.0243645 158.105492,0 L105.756502,0 Z" id="Leg" fill="#B28B67"></path>
                <g id="Accessories/Shoe/Flat-Sneaker" transform="translate(77.560000, 184.845188)" fill="#E4E4E4">
                    <path d="M2.4139726,23.7538544 C1.42021309,26.4484725 0.923333333,28.471189 0.923333333,29.8220039 C0.923333333,31.4970229 1.20071578,33.9412921 1.75548068,37.1548117 C3.68703728,37.1548117 21.0462617,37.1548117 53.8331539,37.1548117 C55.1864681,32.6539774 54.4052567,30.2241219 51.4895198,29.8652449 C48.5737829,29.506368 46.1516307,29.1823309 44.2230632,28.8931336 L20.0930365,18.0713391 C19.5891096,17.8453388 18.9973867,18.0706428 18.7713864,18.5745697 C18.7669295,18.5845075 18.7626352,18.5945176 18.7585053,18.6045957 L17.2323668,22.3288297 L17.2323668,22.3288297 C14.533157,23.5957689 12.3397688,24.2292386 10.6522023,24.2292386 C9.30924977,24.2292386 7.46512815,23.6948151 5.1198374,22.6259681 L5.1198356,22.6259721 C4.1147282,22.1679027 2.92858902,22.6113646 2.47051959,23.616472 C2.44997566,23.66155 2.43111365,23.7073757 2.4139726,23.7538544 Z" id="shoe"></path>
                </g>
                <g id="Accessories/Shoe/Flat-Sneaker" transform="translate(164.353333, 184.845188)" fill="#E4E4E4">
                    <path d="M2.4139726,23.7538544 C1.42021309,26.4484725 0.923333333,28.471189 0.923333333,29.8220039 C0.923333333,31.4970229 1.20071578,33.9412921 1.75548068,37.1548117 C3.68703728,37.1548117 21.0462617,37.1548117 53.8331539,37.1548117 C55.1864681,32.6539774 54.4052567,30.2241219 51.4895198,29.8652449 C48.5737829,29.506368 46.1516307,29.1823309 44.2230632,28.8931336 L20.0930365,18.0713391 C19.5891096,17.8453388 18.9973867,18.0706428 18.7713864,18.5745697 C18.7669295,18.5845075 18.7626352,18.5945176 18.7585053,18.6045957 L17.2323668,22.3288297 L17.2323668,22.3288297 C14.533157,23.5957689 12.3397688,24.2292386 10.6522023,24.2292386 C9.30924977,24.2292386 7.46512815,23.6948151 5.1198374,22.6259681 L5.1198356,22.6259721 C4.1147282,22.1679027 2.92858902,22.6113646 2.47051959,23.616472 C2.44997566,23.66155 2.43111365,23.7073757 2.4139726,23.7538544 Z" id="shoe"></path>
                </g>
                <polygon id="Bottom" fill="#69A1AC" points="113.57 0 128.343333 58.2211442 173.466927 58.2211442 166.738815 0"></polygon>
                <path d="M105.26,-3.3000102e-15 C100.399055,14.6580805 99.4757222,34.0651285 102.49,58.2211442 L148.536927,58.2211442 L161.198815,-3.3000102e-15 L105.26,-3.3000102e-15 Z" id="Bottom" fill="#89C5CC"></path>
            </g>
            <g id="Body/Turtle-Neck" transform="translate(137.267062, 163.422037) scale(-1, 1) rotate(8.000000) translate(-137.267062, -163.422037) translate(18.905045, 76.758836)">
                <path d="M56.3789656,62.517706 L76.6275552,62.5938767 C61.2055844,112.676686 53.0191076,138.899251 52.0681249,141.261572 C49.9284138,146.576794 54.4563302,154.671785 56.392647,159.021972 C50.0861277,161.850592 50.7580941,151.375058 42.8025897,155.084951 C35.5411742,158.471169 30.0174336,164.606769 21.6279172,159.417999 C20.5964755,158.78007 19.4661834,156.378153 22.197112,154.501182 C29.0008511,149.824962 38.8054513,141.640736 40.1302072,138.946834 C41.9367486,135.273218 47.3530013,109.796842 56.3789656,62.517706 L56.3789656,62.517706 Z M184.471942,85.6995573 L210.666848,111.313884 C218.2886,114.572616 224.53354,118.170914 229.401668,122.108778 C230.496437,123.432428 231.688272,125.96861 226.537437,124.833705 C221.386603,123.6988 215.917777,122.737247 214.949688,124.416278 C213.981598,126.095309 216.834153,128.668181 215.045003,130.8656 C213.852237,132.330546 209.840868,127.670839 203.010898,116.886479 L175.771661,100.789109 L184.471942,85.6995573 Z" id="Skin" fill="#B28B67"></path>
                <path d="M113.513212,8.9945126 L121.358993,6.92812685 C137.797063,50.2914229 204.920987,74.95729 210.33299,91.231712 C212.317714,97.1999727 208.210842,100.664056 210.633932,102.322829 L200.944876,110.825829 C199.012173,108.928766 195.598768,113.006877 187.555666,111.066814 C179.512563,109.12675 118.119116,61.6402355 113.513212,8.9945126 Z" id="Clothes-Back" fill="#DB2721" transform="translate(162.203806, 59.266389) rotate(5.000000) translate(-162.203806, -59.266389) "></path>
                <path d="M104.157823,-4.35611281 C104.158258,-4.35608246 104.158693,-4.35605203 104.159036,-4.35471655 L128.464391,-2.6511213 C130.667522,-2.49538902 132.328628,-0.58450447 132.176228,1.61885969 L131.531194,10.8283048 C130.590346,69.9556335 164.687825,85.0297868 157.095306,108.739837 C150.827204,128.313975 90.8311337,149.35609 80.449184,130.168815 C76.2460851,122.400909 74.3394596,113.005936 74.1235884,102.79159 C71.4710084,110.6397 69.371993,117.395507 67.8280264,123.05941 C65.1649338,132.828726 54.840692,134.381602 54.840692,138.145094 L54.840692,138.145094 L41.2386493,134.381602 C42.1612438,129.268743 35.7489122,126.779085 37.4682255,115.356512 C45.1716826,64.1771786 65.869356,27.0787493 99.5612455,4.06122368 L99.890452,-0.644094081 C100.042889,-2.84796792 101.95404,-4.50985455 104.157823,-4.35611281 Z" id="Clothes-Front" fill="#FF4133"></path>
            </g>
        </g>
        <g id="Clock" transform="translate(601.000000, 29.000000)">
            <circle id="Clock-Frame" fill="#F2F2F2" cx="49.5" cy="49.5" r="49.5"></circle>
            <circle id="Time" fill-opacity="0.1" fill="#000000" cx="50" cy="10" r="3"></circle>
            <circle id="Time" fill-opacity="0.1" fill="#000000" cx="10" cy="50" r="3"></circle>
            <circle id="Time" fill-opacity="0.1" fill="#000000" cx="89" cy="50" r="3"></circle>
            <circle id="Time" fill-opacity="0.1" fill="#000000" cx="50" cy="89" r="3"></circle>
            <polygon id="Hand" fill="#AFB9C5" points="50 16 52 49 48 49"></polygon>
            <polygon id="Hand" fill="#AFB9C5" transform="translate(58.104784, 58.104784) rotate(135.000000) translate(-58.104784, -58.104784) " points="58.1047843 46.8972372 59.9727089 69.3123315 56.2368598 69.3123315"></polygon>
            <circle id="Time" fill="#C5CFD6" cx="49.5" cy="49.5" r="3.5"></circle>
        </g>
        <g id="A-Human/Sitting" transform="translate(70.000000, 263.000000)">
            <g id="Head/Front/Short-2" transform="translate(82.273333, 0.000000)">
                <g id="Head" stroke-width="1" transform="translate(54.180000, 31.263456)" fill="#B28B67">
                    <path d="M38.2704858,9.21155841 C44.0846126,20.1044744 43.3937432,47.7352593 35.8795024,49.6821272 C32.8828909,50.4585206 26.4992824,48.556719 20.0021965,44.6205461 L24.08,73.6203966 L0,73.6203966 L8.28954121,34.7829212 C3.66642212,29.3282627 0.537430557,22.643547 1.06029892,15.153149 C2.56685799,-6.42919922 32.4563591,-1.6813576 38.2704858,9.21155841 Z"></path>
                </g>
                <path d="M60.6195321,70.9050344 C57.5972551,57.3900831 48.9872812,48.1773936 50.3022307,42.1367883 C51.1788637,38.1097181 53.5153536,35.6054245 57.3117002,34.6239076 C59.2751348,26.6399952 65.607614,23.2441261 76.309138,24.4363002 C92.3614239,26.2245614 102.158846,32.9252184 97.9278235,47.6695879 C94.0385191,47.6695879 89.3432974,46.2557826 82.8507817,48.6780865 C80.7907327,49.4466737 79.3173252,51.8301302 78.4305594,55.828456 L75.4966172,55.828456 C72.6491027,51.0835364 69.8414352,49.339908 67.0736146,50.5975706 C64.3057941,51.8552333 63.6766234,54.9101009 65.1861028,59.7621735 L63.7408396,70.9050344 L60.6195321,70.9050344 Z" id="Hair" fill="#191847"></path>
            </g>
            <g id="Bottom/Sitting/Skinny-Jeans-1" transform="translate(0.000000, 188.589235)">
                <g id="Objects/Seat/Cube" transform="translate(10.033333, 42.356941)" stroke-width="1">
                    <g id="Seat" transform="translate(55.183333, 0.000000)">
                        <polygon id="Seat-Stuff" fill="#C5CFD6" points="27.714717 0 105.226784 0 115.383333 125.053824 0 125.053824"></polygon>
                        <polygon id="Seat-Stuff" fill-opacity="0.1" fill="#000000" points="27.714717 0 51.5540771 0 65.8224528 125.053824 0 125.053824"></polygon>
                    </g>
                </g>
                <path d="M258.813936,20.9333784 L259.102696,20.7636765 C267.396912,16.09315 280.942744,22.4357597 280.933338,29.4869005 C280.90485,50.8312639 261.525537,151.427172 260.513718,157.786371 C259.501898,164.14557 248.662773,165.825274 248.031575,157.807211 C247.027233,145.049119 245.16129,100.883261 247.028242,80.4405218 C247.79896,72.0013109 248.628989,63.9641301 249.446127,56.7939778 C239.278545,75.2519114 223.551072,101.681014 202.265105,136.080524 L190.710161,130.774205 C199.783899,100.724904 207.224228,79.5108974 213.031148,67.1321848 C222.974004,45.9368235 232.297058,27.7858222 236.22083,21.3922792 C242.393215,11.3347616 253.137452,14.8446131 258.813936,20.9333784 Z" id="Skin" fill="#B28B67"></path>
                <path d="M209.597112,124.324543 L214.566299,22.0215035 C218.240123,4.33652516 249.594858,12.5987939 249.597588,22.0794301 C249.603777,43.6034092 236.847588,117.935879 236.849432,124.348591 L209.597112,124.324543 Z" id="LegLower" fill="#1F28CF" transform="translate(229.597350, 67.991565) rotate(20.000000) translate(-229.597350, -67.991565) "></path>
                <g id="Accessories/Shoe/Flat-Sneaker" transform="translate(216.218333, 134.130312) rotate(30.000000) translate(-216.218333, -134.130312) translate(185.616667, 113.960340)" fill="#E4E4E4">
                    <path d="M3.16688061,24.3703533 C1.72451576,28.0141339 1.00333333,30.683524 1.00333333,32.3785236 C1.00333333,34.1971351 1.30474892,36.8509417 1.90758009,40.3399433 C4.00649177,40.3399433 22.8697645,40.3399433 58.4973983,40.3399433 C59.9679671,35.4532708 59.1190695,32.8151135 55.9507056,32.4254715 C52.7823417,32.0358295 50.1503279,31.684014 48.0546644,31.370025 L21.186439,19.3303724 C20.9848397,19.2400357 20.748179,19.3302319 20.6578424,19.5318311 C20.6560942,19.5357325 20.6544087,19.5396616 20.6527864,19.5436169 L18.7254238,24.2429899 L18.7254238,24.2429899 C15.7923475,25.6185387 13.4089185,26.3063131 11.5751367,26.3063131 C9.87653824,26.3063131 7.44010724,25.5201866 4.26584375,23.9479334 L4.26586293,23.9478947 C3.86991925,23.7517787 3.38996008,23.9137711 3.19384412,24.3097148 C3.18402147,24.329546 3.1750259,24.3497763 3.16688061,24.3703533 Z" id="shoe"></path>
                </g>
                <g id="Accessories/Shoe/Flat-Sneaker" transform="translate(242.806667, 127.070822)" fill="#E4E4E4">
                    <path d="M3.16688061,24.3703533 C1.72451576,28.0141339 1.00333333,30.683524 1.00333333,32.3785236 C1.00333333,34.1971351 1.30474892,36.8509417 1.90758009,40.3399433 C4.00649177,40.3399433 22.8697645,40.3399433 58.4973983,40.3399433 C59.9679671,35.4532708 59.1190695,32.8151135 55.9507056,32.4254715 C52.7823417,32.0358295 50.1503279,31.684014 48.0546644,31.370025 L21.186439,19.3303724 C20.9848397,19.2400357 20.748179,19.3302319 20.6578424,19.5318311 C20.6560942,19.5357325 20.6544087,19.5396616 20.6527864,19.5436169 L18.7254238,24.2429899 L18.7254238,24.2429899 C15.7923475,25.6185387 13.4089185,26.3063131 11.5751367,26.3063131 C9.87653824,26.3063131 7.44010724,25.5201866 4.26584375,23.9479334 L4.26586293,23.9478947 C3.86991925,23.7517787 3.38996008,23.9137711 3.19384412,24.3097148 C3.18402147,24.329546 3.1750259,24.3497763 3.16688061,24.3703533 Z" id="shoe"></path>
                </g>
                <path d="M283.712941,36.7426569 C283.712941,63.5354108 271.054112,126.032364 271.046101,131.931897 L243.81,131.952925 C247.796522,76.1875106 249.210112,48.0044245 248.050772,47.403667 C246.311761,46.5025308 176.76309,54.3833169 155.904312,54.3833169 C125.825851,54.3833169 113.382994,35.3180209 112.373333,-4.44280432e-13 L171.957646,-4.44280432e-13 C184.089547,1.30486297 247.370655,14.1343666 270.872004,18.5446883 C280.933333,20.4328226 283.712941,29.361943 283.712941,36.7426569 Z" id="Leg-and-Butt" fill="#2B44FF"></path>
            </g>
            <g id="Body/Pointing-Up" transform="translate(22.073333, 82.696884)">
                <path d="M188.733878,69.7559563 L220.738477,93.3786223 C229.418783,95.7329403 236.670898,98.6621095 242.494822,102.16613 C243.870534,103.426153 245.533211,105.977909 239.827801,105.536902 C234.12239,105.095895 228.101422,104.889936 227.314187,106.845981 C226.526951,108.802027 229.979556,111.141243 228.38821,113.780461 C227.327312,115.539939 222.315206,111.128112 213.351891,100.544979 L181.658942,87.3350565 L188.733878,69.7559563 Z M251.273096,-17.121264 C247.489094,-12.8066679 243.701942,-8.09730348 244.782338,-6.28817472 C245.862734,-4.47904596 249.799176,-5.84283905 250.938458,-2.97706971 C251.697979,-1.06655681 245.176222,0.301792525 231.373188,1.1279783 L201.804016,18.6194661 L192.09443,2.36071637 L230.124552,-9.11440244 C237.219103,-14.6656278 243.910892,-18.7244232 250.199919,-21.2907886 C252.028989,-21.6368363 255.057098,-21.4358602 251.273096,-17.121264 Z" id="Skin" fill="#B28B67"></path>
                <path d="M127.342711,15.7392897 C152.631745,42.7802181 183.456248,60.4440428 225.485228,76.1306403 L216.180319,94.8560194 C172.831476,90.6953607 149.655017,87.3871274 131.454596,60.3136606 C126.88666,53.5187693 118.704547,30.1485187 113.805246,18.0114754 L127.342711,15.7392897 Z" id="Coat-Back" fill="#2026A2" transform="translate(169.645237, 55.297655) rotate(15.000000) translate(-169.645237, -55.297655) "></path>
                <path d="M90.3,114.968839 L167.556667,114.968839 C150.056738,61.3221407 141.11711,24.5023823 140.737783,4.50956342 C140.718445,3.49031019 138.84566,1.69424204 138.017099,1.92945315 C131.957922,3.64952666 125.474124,3.00637561 118.565706,0 C100.250543,29.6079117 93.9168424,66.0612458 90.3,114.968839 Z" id="Shirt" fill="#F2F2F2"></path>
                <path d="M224.669084,-9.07648725 L228.76,11.4701388 C197.442469,31.7157119 165.730841,47.3988287 137.943641,45.1713401 C150.010827,97.1955712 149.454692,139.783921 122.815497,139.783921 L122.815497,139.783921 L81.6222973,139.783921 C75.0798662,95.5894763 92.2746553,34.3127677 108.215475,3.40529055 C108.824207,2.2250271 110.120258,-3.58824082e-13 113.172991,-3.58824082e-13 L113.172991,-3.58824082e-13 L125.142519,-3.58824082e-13 C125.147805,0.0159974635 125.15309,0.0319949134 125.158375,0.0479923488 C147.302835,0.229980374 183.232295,4.29499465 224.669084,-9.07648725 Z" id="Coat-Front" fill="#1F28CF"></path>
            </g>
        </g>
    </g>
</svg>